<svg version="1.1" width="145.7" height="241.943" viewBox="0 0 145.7 241.943" xmlns="http://www.w3.org/2000/svg" xmlns:xlink="http://www.w3.org/1999/xlink" id="svg5147" overflow="hidden"><defs id="defs5151"></defs><g id="g5155" transform="matrix(1.25,0,0,-1.25,-7.63444e-06,241.943)"><path d=" M 3.3868 88.4622 C 4.3728 82.3262 7.3358 78.6912 11.5868 76.4412 C 16.8448 73.6622 24.1448 72.8632 32.1488 72.1472 C 34.3558 71.9482 36.4268 71.7512 38.3608 71.5082 L 113.53 161.205 L 113.53 190.704 L 89.2048 190.704 L 3.3868 88.4622 Z M 55.5138 59.1712 C 55.0398 59.9232 54.6558 60.7402 54.1088 61.4662 C 52.7168 63.3252 50.8098 64.9362 48.3748 66.2132 C 46.4098 67.2472 44.0738 67.9162 41.3778 68.4052 C 38.6028 68.9092 35.4428 69.2232 31.9228 69.5372 C 23.6278 70.2782 16.0488 71.1152 10.3648 74.1222 C 4.4778 77.2342 0.7128 82.5402 0.4258 92.1382 L 0.4188 92.1732 L 0.4188 192.019 L 0.4188 193.334 L 1.7348 193.334 L 58.2578 193.334 L 114.846 193.334 L 116.158 193.334 L 116.158 192.019 L 116.158 92.1732 L 116.156 92.1382 C 115.869 82.5402 112.101 77.2342 106.216 74.1222 C 100.532 71.1152 92.9518 70.2782 84.6568 69.5372 C 81.1358 69.2232 77.9788 68.9092 75.2018 68.4052 C 72.5028 67.9162 70.1688 67.2472 68.2058 66.2132 C 65.7658 64.9332 63.8618 63.3222 62.4688 61.4612 C 61.9228 60.7352 61.5078 59.9402 61.0658 59.1712 C 60.0118 57.3362 59.1528 55.4362 58.2888 53.5202 C 57.5478 55.4172 56.6838 57.3062 55.5138 59.1712" id="path5173" stroke="#00539F" stroke-width="0.44" stroke-miterlimit="4" stroke-dasharray="" stroke-opacity="0.52071" fill="#00539F" fill-rule="nonzero" fill-opacity="1"/><g id="g5175" stroke="#00539F" stroke-width="0.44" stroke-miterlimit="4" stroke-dasharray="" stroke-opacity="0.52071" transform="matrix(1,0,0,1,110.478,117.276)"><path d=" M 0 0 C -0.04 -0.21 -0.063 -0.321 -0.05 -0.412 C -0.035 -0.529 0.039 -0.613 0.207 -0.83 L 1.336 -2.375 L 2.921 -4.264 C 3.072 -4.483 3.08 -4.645 3.003 -4.771 C 2.831 -5.053 2.241 -5.174 1.827 -5.434 C 1.707 -5.508 1.677 -5.581 1.69 -5.656 C 1.722 -5.819 1.972 -5.993 1.972 -6.204 C 1.974 -6.306 1.894 -6.388 1.742 -6.594 C 1.321 -7.165 0.83 -7.842 0.332 -8.358 C -0.032 -8.741 -0.479 -8.962 -0.996 -9.218 C -1.192 -9.315 -1.222 -9.345 -1.231 -9.569 C -1.253 -10.112 -1.253 -11.101 -1.522 -11.515 C -1.804 -11.944 -2.646 -11.62 -3.004 -11.525 C -3.385 -11.424 -3.755 -11.228 -4.335 -10.817 C -4.765 -10.513 -5.364 -10.087 -5.767 -9.701 C -6.331 -9.161 -6.979 -8.584 -7.499 -8.004 C -7.891 -7.568 -8.226 -7.054 -8.458 -6.569 C -8.805 -5.86 -8.903 -4.969 -9.065 -4.234 C -9.246 -3.422 -10.618 -2.37 -11.307 -1.965 C -11.828 -1.663 -12.685 -1.434 -13.264 -1.329 C -13.598 -1.27 -14.441 -1.11 -14.732 -1.347 C -15.095 -1.64 -15.72 -2.351 -15.969 -2.753 C -16.023 -2.842 -16.036 -2.938 -16 -3.1 C -15.971 -3.232 -15.916 -3.392 -15.842 -3.584 C -15.77 -3.767 -15.724 -3.865 -15.722 -3.938 C -15.713 -4.054 -15.818 -4.087 -16.091 -4.285 C -16.354 -4.475 -16.697 -4.686 -16.9 -4.887 C -17.028 -5.016 -17.125 -5.195 -17.237 -5.384 C -17.332 -5.541 -17.438 -5.7 -17.583 -5.839 C -18.094 -6.352 -18.513 -6.822 -19.141 -7.181 C -19.402 -7.33 -19.652 -7.472 -19.677 -7.53 C -19.697 -7.586 -19.67 -7.661 -19.57 -7.771 C -19.267 -8.102 -19.087 -8.292 -18.704 -8.538 L -18.634 -8.58 L -17.256 -9.613 C -16.975 -9.854 -16.713 -10.164 -16.506 -10.468 C -16.182 -10.953 -16.024 -11.54 -16.215 -12.115 L -16.22 -12.115 C -16.333 -12.458 -16.543 -12.746 -16.86 -12.962 L -16.866 -12.968 C -17.074 -13.107 -17.387 -13.266 -17.628 -13.33 C -17.927 -13.413 -18.176 -13.36 -18.353 -13.666 C -18.473 -13.874 -18.453 -14.132 -18.575 -14.318 C -18.932 -14.857 -19.329 -15.073 -19.926 -15.213 C -20.217 -15.28 -20.511 -15.344 -20.791 -15.437 C -21.325 -15.648 -21.68 -15.78 -22.075 -16.022 C -22.198 -16.097 -22.322 -16.181 -22.458 -16.282 C -22.523 -16.329 -22.609 -16.333 -22.776 -16.283 C -23.342 -16.115 -24.374 -15.847 -24.602 -15.627 C -24.693 -15.539 -24.755 -15.391 -24.802 -15.132 C -24.883 -14.708 -24.847 -14.367 -24.942 -13.938 C -24.982 -13.754 -25.033 -13.654 -25.097 -13.606 C -25.214 -13.522 -25.374 -13.603 -25.615 -13.666 C -26.295 -13.846 -26.311 -13.645 -26.947 -13.577 C -27.472 -13.518 -27.968 -13.574 -28.492 -13.413 C -28.805 -13.318 -28.985 -13.123 -29.369 -13.063 C -29.643 -13.023 -29.737 -12.982 -29.774 -12.897 C -29.816 -12.803 -29.782 -12.648 -29.849 -12.364 C -29.943 -11.96 -30.125 -11.613 -30.367 -11.319 C -30.563 -11.077 -30.987 -10.656 -31.31 -10.666 C -31.593 -10.674 -31.82 -10.774 -31.991 -11.015 C -32.057 -11.111 -32.092 -11.217 -32.127 -11.351 C -32.183 -11.571 -32.245 -11.666 -32.326 -11.687 C -32.616 -11.759 -33.942 -10.908 -34.182 -10.732 C -34.405 -10.571 -34.467 -10.485 -34.544 -10.459 C -34.618 -10.435 -34.704 -10.468 -34.974 -10.548 C -35.19 -10.61 -35.392 -10.67 -35.604 -10.701 C -35.872 -10.737 -36.144 -10.682 -36.412 -10.656 C -36.466 -10.649 -36.518 -10.649 -36.553 -10.666 C -36.605 -10.688 -36.626 -10.748 -36.586 -10.871 C -36.572 -10.92 -36.554 -10.979 -36.538 -11.052 L -36.53 -11.095 C -36.451 -11.568 -36.497 -11.883 -36.822 -12.273 C -37.026 -12.518 -37.294 -12.715 -37.541 -12.795 C -37.938 -12.922 -38.389 -12.881 -38.773 -12.691 C -39.342 -12.414 -39.288 -12.122 -39.464 -11.718 C -39.752 -11.056 -40.779 -10.786 -41.441 -10.695 C -41.951 -10.625 -42.379 -10.726 -42.873 -10.776 C -43.111 -10.804 -43.375 -10.807 -43.606 -10.74 C -44.153 -10.58 -45.023 -9.834 -45.438 -9.452 C -45.692 -9.217 -45.819 -8.93 -45.847 -8.584 C -45.861 -8.43 -45.855 -8.291 -45.834 -8.159 C -45.712 -7.416 -44.975 -7.317 -45.349 -6.654 C -45.646 -6.124 -45.964 -5.801 -46.524 -5.556 C -47.176 -5.271 -47.885 -5.085 -48.551 -4.872 C -49.086 -4.7 -49.509 -4.565 -50.013 -4.314 C -50.255 -4.195 -50.42 -4.297 -50.647 -4.38 C -50.761 -4.44 -50.868 -4.466 -50.971 -4.466 C -51.089 -4.466 -51.205 -4.434 -51.313 -4.38 C -51.895 -4.027 -52.78 -2.883 -53.408 -3.574 L -53.702 -3.987 C -54.029 -4.524 -54.201 -4.818 -54.878 -4.936 C -55.203 -4.994 -55.515 -4.924 -55.737 -4.594 L -56.034 -4.152 C -56.173 -3.941 -56.342 -3.718 -56.533 -3.515 C -57.031 -2.983 -57.309 -2.955 -58.009 -2.926 C -58.39 -2.911 -58.765 -2.908 -59.165 -2.896 C -59.463 -2.887 -59.713 -2.794 -59.887 -2.675 C -60.131 -2.507 -60.249 -2.241 -60.387 -1.983 C -60.594 -1.595 -60.961 -1.293 -61.203 -0.918 C -61.435 -0.558 -61.606 -0.203 -61.776 0.2 C -61.908 0.522 -62.082 0.844 -62.132 1.172 C -62.166 1.41 -62.12 1.659 -61.972 1.992 C -61.813 2.349 -61.915 2.407 -61.901 2.78 C -61.896 2.97 -61.839 3.129 -61.743 3.271 C -61.678 3.368 -61.648 3.421 -61.648 3.449 C -61.651 3.513 -61.799 3.457 -62.038 3.499 C -62.257 3.54 -62.477 3.598 -62.678 3.649 C -62.819 3.692 -62.91 3.705 -62.969 3.751 C -63.021 3.792 -63.048 3.86 -63.063 4 C -63.082 4.193 -63.083 4.436 -63.095 4.532 C -63.109 4.649 -63.158 4.762 -63.214 4.867 C -63.321 5.067 -63.457 5.248 -63.447 5.416 C -63.417 5.946 -62.735 6.069 -62.329 6.231 C -62.259 6.312 -62.316 6.312 -62.39 6.375 C -62.82 6.732 -63.302 7.107 -63.791 7.432 C -64.714 8.042 -65.782 8.416 -66.642 9.131 C -67.215 9.605 -67.691 10.031 -68.157 10.521 C -68.445 10.822 -68.734 11.087 -68.979 11.419 C -69.196 11.714 -69.388 11.975 -69.699 12.213 C -69.909 12.374 -70.132 12.507 -70.421 12.647 C -71.077 12.965 -71.605 13.246 -72.18 13.689 C -72.497 13.935 -72.765 14.117 -73.103 14.334 C -73.735 14.737 -74.253 15.33 -74.956 15.619 C -75.149 15.698 -75.347 15.79 -75.534 15.901 C -75.783 16.049 -76.013 16.228 -76.185 16.452 C -76.341 16.657 -76.443 16.891 -76.5 17.164 C -76.532 17.319 -76.554 17.375 -76.597 17.387 C -76.653 17.402 -76.745 17.341 -76.938 17.325 C -77.381 17.285 -77.821 17.373 -78.262 17.378 C -79 17.365 -79.719 17.186 -80.462 17.175 C -80.941 17.169 -81.426 17.199 -81.929 17.264 L -81.933 17.264 C -82.844 17.389 -83.697 17.633 -84.533 18.013 C -85.127 18.28 -85.742 18.574 -86.335 18.623 C -86.617 18.646 -86.893 18.62 -87.228 18.609 C -87.805 18.589 -88.373 18.762 -88.942 18.685 C -89.409 18.623 -89.915 18.467 -90.279 18.627 C -90.697 18.807 -90.811 19.418 -91.293 19.713 C -92.135 20.231 -92.581 20.402 -93.534 20.553 C -94.039 20.632 -94.538 20.712 -95.044 20.753 C -95.437 20.784 -95.832 20.792 -96.231 20.757 L -96.231 20.756 C -96.448 20.735 -96.649 20.716 -96.84 20.697 C -98.276 20.562 -99.083 20.495 -100.628 20.954 C -101.712 21.276 -102.593 21.754 -103.552 22.339 C -104.518 22.926 -105.56 23.582 -106.463 24.262 C -106.767 24.489 -107.093 24.725 -107.331 25.251 C -107.534 25.702 -107.392 25.71 -107.149 26.134 C -106.89 26.583 -106.9 26.623 -106.977 27.132 C -107.028 27.468 -107.026 27.742 -106.871 28.135 C -106.865 28.144 -106.863 28.148 -106.856 28.155 C -106.857 28.161 -106.858 28.166 -106.858 28.172 C -106.88 28.368 -106.899 28.56 -106.87 28.756 C -106.853 28.874 -106.83 28.996 -106.845 29.085 C -106.852 29.126 -106.879 29.172 -106.942 29.256 C -107.179 29.56 -107.338 29.85 -107.33 30.253 C -107.327 30.446 -107.303 30.611 -107.262 30.771 C -107.178 31.094 -107.02 31.389 -106.8 31.838 L -106.798 31.836 L -106.409 32.632 L -105.521 34.456 L -105.523 34.456 C -105.27 34.982 -105.014 35.508 -104.76 36.033 C -104.607 36.353 -104.427 36.654 -104.176 36.872 C -103.854 37.149 -103.5 37.188 -103.099 37.219 L -103.099 37.22 C -102.746 37.245 -102.391 37.273 -102.037 37.3 C -101.52 37.342 -101.004 37.382 -100.487 37.424 C -99.372 37.512 -98.256 37.619 -97.139 37.684 C -96.959 37.693 -96.78 37.707 -96.606 37.729 C -96.522 37.739 -96.476 37.795 -96.472 37.844 C -96.468 37.894 -96.504 37.945 -96.59 37.967 C -96.606 37.971 -96.626 37.975 -96.645 37.981 C -97.074 38.125 -97.361 38.236 -97.556 38.415 C -97.764 38.603 -97.87 38.867 -97.932 39.323 C -97.957 39.503 -97.976 39.612 -98.036 39.695 C -98.089 39.77 -98.176 39.821 -98.321 39.877 C -98.988 40.116 -99.684 40.333 -100.376 40.952 C -100.621 41.171 -100.773 41.278 -101.05 41.443 C -101.294 41.59 -101.477 41.767 -101.624 41.954 C -101.926 42.334 -101.981 42.329 -102.459 42.483 C -102.81 42.597 -103.144 42.748 -103.332 43.059 C -103.617 43.533 -103.509 44.122 -103.23 44.548 C -103.057 44.814 -102.816 45.012 -102.567 45.092 C -102.176 45.216 -101.601 45.263 -101.1 45.283 C -100.833 45.292 -100.721 45.277 -100.684 45.345 C -100.654 45.398 -100.67 45.506 -100.688 45.727 L -100.833 47.601 C -100.915 48.664 -100.045 49.073 -99.199 49.143 L -99.193 49.143 L -97.923 49.247 L -97.916 49.247 L -97.823 49.255 L -97.823 49.256 C -96.906 49.332 -95.992 49.412 -95.074 49.492 L -95.074 49.487 L -93.708 49.609 L -92.335 49.735 L -90.967 49.864 L -90.967 49.865 L -89.599 49.997 L -89.542 50.002 C -89.418 50.014 -89.416 50.049 -89.374 50.153 C -89.194 50.596 -89.031 50.998 -88.624 51.321 C -88.241 51.622 -87.675 51.574 -87.228 51.484 C -87.043 51.447 -86.968 51.424 -86.915 51.457 C -86.75 51.555 -86.552 52.152 -86.478 52.332 C -86.192 53.014 -85.942 53.75 -85.537 54.313 C -85.197 54.787 -84.653 55.021 -84.104 55.161 C -83.604 55.288 -83.041 55.339 -82.529 55.291 C -81.938 55.235 -81.412 55.047 -81.121 54.691 C -80.642 54.101 -80.461 52.893 -80.404 52.297 C -80.352 51.751 -80.381 51.19 -80.541 50.557 C -80.634 50.179 -81.085 48.939 -80.882 48.58 C -80.852 48.527 -80.784 48.49 -80.646 48.393 C -80.377 48.205 -80.061 47.965 -80.128 47.687 C -80.185 47.448 -80.461 47.282 -80.621 47.019 C -80.722 46.853 -80.993 46.056 -80.989 45.879 C -80.982 45.589 -80.938 45.614 -80.787 45.395 C -80.637 45.174 -80.542 44.87 -80.456 44.545 C -80.397 44.325 -80.315 44.084 -80.289 43.879 C -80.255 43.604 -80.361 43.3 -80.41 43.031 C -80.491 42.583 -80.542 42.134 -80.549 41.679 C -80.521 41.304 -80.495 41.1 -80.583 40.845 C -80.684 40.545 -80.886 40.251 -81.081 40.006 C -81.418 39.581 -81.423 39.583 -81.657 39.113 C -81.81 38.813 -81.776 38.508 -81.903 38.245 C -81.974 38.097 -82.182 38.107 -82.176 37.964 C -82.171 37.819 -82.043 37.831 -81.899 37.735 C -81.636 37.557 -81.375 37.519 -81.092 37.373 C -80.753 37.199 -80.336 36.908 -80.333 36.91 C -80.093 36.968 -80.128 37.315 -80.037 37.508 C -79.884 37.829 -79.61 37.959 -79.062 38.217 C -78.586 38.44 -78.048 38.618 -77.515 38.654 C -77.122 38.679 -76.704 38.676 -76.364 38.462 C -76.144 38.322 -76.027 38.269 -75.919 38.261 C -75.783 38.252 -75.658 38.32 -75.344 38.392 C -74.237 38.521 -73.144 38.148 -72.009 38.345 C -71.737 38.391 -71.44 38.483 -71.139 38.622 C -70.702 38.825 -70.202 38.875 -69.774 38.855 C -69.465 38.841 -69.335 38.852 -69.222 38.911 C -69.105 38.973 -69.005 39.083 -68.753 39.27 C -68.638 39.354 -68.436 39.431 -68.293 39.528 C -68.19 39.601 -68.167 39.665 -68.157 39.737 C -68.146 39.81 -68.15 39.887 -68.099 39.986 C -68.029 40.116 -67.905 40.255 -67.756 40.38 C -67.385 40.688 -66.961 40.817 -66.484 40.772 C -65.58 40.684 -64.852 40.817 -63.967 40.417 L -63.942 40.412 C -63.615 40.343 -63.237 40.352 -62.861 40.417 C -62.346 40.51 -61.834 40.711 -61.458 40.971 C -61.023 41.271 -60.515 41.48 -59.981 41.404 C -59.248 41.3 -58.606 41.092 -57.878 40.964 C -57.74 40.943 -57.602 40.926 -57.47 40.922 C -57.215 40.914 -56.893 40.944 -56.633 40.959 C -56.229 40.982 -55.828 41.067 -55.502 41.019 L -55.419 41.006 C -54.61 40.88 -53.224 39.712 -52.538 39.227 C -52.307 39.094 -52.079 38.956 -51.856 38.812 C -51.621 38.658 -51.384 38.563 -51.14 38.497 C -50.707 38.38 -50.256 38.353 -49.756 38.243 C -48.992 38.076 -48.276 37.827 -47.919 37.061 C -47.791 36.778 -47.771 36.768 -47.452 36.701 L -47.445 36.701 L -46.26 36.45 C -46.099 36.414 -45.927 36.377 -45.839 36.213 C -45.755 36.058 -45.826 35.923 -45.892 35.782 L -46.345 34.816 C -46.435 34.623 -46.532 34.483 -46.631 34.372 C -46.797 34.192 -46.917 34.088 -46.954 33.955 C -46.984 33.852 -46.965 33.73 -46.885 33.543 C -46.808 33.356 -46.722 33.158 -46.631 32.949 C -46.494 32.636 -46.356 32.336 -46.219 32.045 C -46.095 31.778 -45.98 31.554 -45.919 31.261 C -45.865 30.993 -45.884 30.694 -45.929 30.426 C -46.014 29.923 -46.187 29.52 -46.363 29.11 L -46.363 29.105 C -46.498 28.791 -46.625 28.472 -46.819 28.187 C -46.95 27.99 -47.041 27.892 -47.061 27.656 L -47.061 27.65 C -47.121 26.92 -47.225 26.198 -47.255 25.462 C -47.278 24.827 -47.324 24.114 -47.156 23.497 C -47.064 23.161 -46.957 22.809 -46.815 22.454 C -46.631 21.984 -46.399 21.504 -46.385 21.063 C -46.371 20.704 -46.396 20.348 -46.403 19.989 C -46.41 19.75 -46.401 19.508 -46.328 19.313 C -46.196 18.964 -45.869 18.656 -45.681 18.325 C -45.574 18.133 -45.529 17.944 -45.538 17.754 C -45.548 17.51 -45.701 17.019 -45.923 16.887 C -46.095 16.783 -46.295 16.817 -46.463 16.804 C -46.57 16.797 -46.629 16.775 -46.661 16.74 C -46.713 16.684 -46.685 16.587 -46.642 16.446 C -46.49 15.934 -46.303 15.517 -46.438 14.963 C -46.467 14.842 -46.49 14.712 -46.513 14.576 C -46.517 14.552 -46.521 14.526 -46.527 14.5 C -46.585 14.165 -46.57 14.132 -46.438 13.818 C -46.41 13.749 -46.382 13.681 -46.352 13.612 L -46.11 13.043 C -46.04 12.874 -45.984 12.672 -45.957 12.472 C -45.933 12.295 -45.931 12.118 -45.957 11.966 C -46.084 11.188 -46.716 11.068 -47.004 10.444 C -47.179 10.069 -46.968 9.731 -46.803 9.374 C -46.747 9.268 -46.685 9.166 -46.615 9.069 C -46.548 8.979 -46.474 8.893 -46.391 8.813 C -45.896 8.448 -45.468 8.448 -45.034 7.881 C -44.97 7.784 -44.91 7.688 -44.854 7.586 C -44.367 6.715 -43.962 6.055 -43.513 5.458 C -43.216 5.066 -42.889 4.685 -42.488 4.268 C -42.183 3.951 -41.716 3.424 -41.269 3.263 C -41.066 3.189 -40.857 3.158 -40.62 3.021 C -40.479 2.94 -40.353 2.832 -40.241 2.71 C -39.922 2.375 -39.667 1.933 -39.274 1.648 C -38.729 1.256 -37.938 1.131 -37.336 0.805 C -37.044 0.646 -36.761 0.472 -36.455 0.302 L -36.455 0.3 C -36.355 0.246 -36.258 0.187 -36.16 0.128 C -35.815 -0.082 -35.483 -0.309 -35.12 -0.504 C -34.875 -0.635 -34.631 -0.775 -34.399 -0.977 C -34.091 -1.259 -33.894 -1.645 -33.777 -1.578 C -33.625 -1.494 -33.524 -1.121 -33.383 -0.953 C -33.273 -0.819 -33.127 -0.802 -32.778 -0.943 C -31.625 -1.414 -30.61 -2.03 -29.781 -2.837 C -29.606 -3.003 -29.513 -3.104 -29.397 -3.157 C -28.415 -3.613 -26.503 -2.385 -25.784 -1.816 C -25.194 -1.287 -24.695 -0.659 -24.128 -0.258 C -23.216 0.39 -22.296 0.573 -21.505 1.399 C -20.908 2.025 -20.305 2.562 -19.696 3.073 C -19.031 3.628 -18.673 4.343 -18.011 4.937 C -17.69 5.227 -17.36 5.432 -17.081 5.432 C -16.543 5.432 -16.238 4.704 -15.515 4.81 C -15.217 4.854 -14.716 5.059 -14.413 5.118 C -13.856 5.23 -13.348 5.297 -12.723 5.188 C -11.607 4.997 -11.173 4.894 -10.005 5.067 C -9.078 5.162 -8.452 4.82 -7.627 4.589 C -7.315 4.501 -6.971 4.473 -6.666 4.459 C -5.985 4.429 -5.661 4.327 -5.062 3.972 C -4.22 3.47 -3.486 2.736 -2.607 2.316 C -1.774 1.917 -0.713 1.666 -0.229 1.064 C -0.012 0.795 0.088 0.454 0 0" id="path5177" stroke="#00539F" stroke-width="0.44" stroke-miterlimit="4" stroke-dasharray="" stroke-opacity="0.52071" fill="#00539F" fill-rule="nonzero" fill-opacity="1"/></g><g id="g5179" stroke="#00539F" stroke-width="0.44" stroke-miterlimit="4" stroke-dasharray="" stroke-opacity="0.52071" transform="matrix(1,0,0,1,56.2862,124.226)"><path d=" M 0 0 C -0.218 -0.238 -0.48 -0.483 -0.788 -0.296 C -1.054 -0.137 -1.583 -0.031 -1.896 -0.039 C -2.192 -0.049 -2.455 -0.095 -2.731 -0.109 C -3.037 -0.127 -3.412 0.021 -3.784 0.103 C -4.506 0.263 -5.266 0.455 -5.806 0.659 C -6.149 0.789 -6.405 1.044 -6.631 1.323 C -6.746 1.47 -6.829 1.588 -6.895 1.719 C -6.968 1.862 -7.017 1.997 -7.088 2.116 C -7.272 2.424 -7.416 2.707 -7.524 3.034 C -7.596 3.251 -7.574 3.313 -7.476 3.347 C -7.253 3.423 -7.151 3.452 -7.149 3.532 C -7.146 3.673 -7.194 3.761 -7.27 3.796 C -7.33 3.824 -7.407 3.82 -7.492 3.786 C -7.67 3.714 -7.803 3.658 -7.861 3.703 C -7.896 3.729 -7.89 3.788 -7.879 3.907 C -7.829 4.461 -8.366 4.742 -8.316 5.234 C -8.266 5.741 -8.175 5.825 -7.78 5.981 C -7.42 6.127 -7.236 6.174 -7.042 6.098 C -6.854 6.022 -6.764 5.879 -6.637 5.819 C -6.561 5.785 -6.474 5.78 -6.341 5.843 C -6.139 5.935 -5.974 5.789 -5.748 5.58 C -5.603 5.443 -5.476 5.283 -5.358 5.142 C -5.262 5.024 -5.199 4.953 -5.126 4.933 C -5.062 4.915 -4.969 4.983 -4.83 5.006 C -4.482 5.062 -4.143 4.894 -3.827 4.672 C -3.645 4.543 -3.329 4.349 -3.087 4.142 C -2.736 3.842 -2.497 3.482 -2.121 3.179 C -1.815 2.929 -1.353 2.655 -1.099 2.364 C -0.924 2.163 -0.816 1.835 -0.632 1.658 C -0.48 1.513 -0.251 1.483 -0.135 1.304 C -0.019 1.125 -0.031 0.869 0.066 0.648 C 0.164 0.432 0.17 0.185 0 0 M -10.113 6.204 C -10.397 6.08 -10.719 6.034 -11.025 6.104 C -11.148 6.132 -11.207 6.205 -11.094 6.373 C -10.822 6.771 -11.545 7.034 -11.732 6.616 C -11.852 6.343 -11.89 6.454 -12.209 6.519 C -12.533 6.611 -12.836 6.604 -13.013 6.907 C -13.096 7.044 -13.164 7.202 -13.101 7.327 C -12.988 7.557 -12.816 7.307 -12.607 7.454 C -12.235 7.722 -11.55 8.324 -11.308 8.244 C -11.189 8.205 -11.111 8.032 -10.994 7.848 C -10.909 7.711 -10.453 6.967 -10.41 6.97 C -10.315 6.977 -10.255 7.409 -9.951 7.35 C -9.873 7.335 -9.805 7.241 -9.752 7.022 C -9.668 6.696 -9.721 6.374 -10.113 6.204 M 55.425 -11.066 C 55.264 -10.914 55.095 -10.811 54.952 -10.634 C 54.641 -10.244 54.364 -9.763 54.069 -9.392 L 53.959 -9.254 C 53.872 -9.174 53.824 -9.193 53.707 -9.191 C 53.596 -9.178 53.575 -9.152 53.513 -9.055 C 53.288 -8.704 53.231 -8.111 52.833 -7.978 C 52.7 -7.935 52.591 -8.039 52.482 -8.005 C 52.44 -7.991 52.427 -7.942 52.419 -7.847 C 52.414 -7.77 52.422 -7.697 52.451 -7.603 C 52.564 -7.244 52.859 -6.957 52.936 -6.602 C 52.933 -6.535 52.907 -6.499 52.87 -6.482 C 52.781 -6.445 52.626 -6.567 52.526 -6.595 C 52.431 -6.619 52.339 -6.634 52.23 -6.617 C 52.143 -6.604 52.069 -6.571 51.96 -6.499 C 51.777 -6.375 51.567 -6.194 51.353 -6.058 C 51.266 -6.002 51.178 -5.952 51.09 -5.918 C 51.003 -5.884 50.88 -5.841 50.768 -5.784 C 50.652 -5.728 50.549 -5.657 50.504 -5.563 C 50.49 -5.532 50.487 -5.515 50.474 -5.505 C 50.439 -5.477 50.403 -5.507 50.365 -5.546 C 50.336 -5.573 50.309 -5.503 50.239 -5.433 C 50.101 -5.293 49.989 -5.157 49.851 -4.995 C 49.61 -4.712 49.455 -4.609 49.311 -4.557 C 48.901 -4.399 48.534 -4.28 48.15 -4.042 C 47.975 -3.932 47.819 -3.816 47.667 -3.687 C 47.612 -3.641 47.55 -3.652 47.45 -3.652 C 47.288 -3.672 47.098 -3.708 46.934 -3.647 C 46.83 -3.609 46.726 -3.597 46.625 -3.592 C 46.481 -3.586 46.348 -3.603 46.256 -3.597 C 46.082 -3.589 45.923 -3.497 45.749 -3.465 C 45.414 -3.403 45.053 -3.371 44.716 -3.294 C 44.679 -3.286 44.644 -3.277 44.608 -3.269 C 44.541 -3.251 44.517 -3.239 44.505 -3.225 C 44.492 -3.207 44.492 -3.183 44.454 -3.129 C 44.417 -3.076 44.267 -3.116 44.216 -3.123 C 43.73 -3.199 42.889 -3.374 42.471 -3.326 C 42.398 -3.317 42.363 -3.293 42.295 -3.323 L 42.115 -3.406 C 41.994 -3.463 41.855 -3.557 41.724 -3.581 C 41.548 -3.614 41.455 -3.511 41.276 -3.547 C 41.173 -3.568 41.051 -3.555 40.969 -3.575 C 40.89 -3.597 40.872 -3.659 40.822 -3.716 C 40.753 -3.788 40.727 -3.751 40.647 -3.747 C 40.584 -3.744 40.536 -3.764 40.493 -3.76 C 40.419 -3.754 40.378 -3.683 40.353 -3.603 C 40.317 -3.493 40.268 -3.301 40.353 -3.204 C 40.414 -3.141 40.5 -3.134 40.617 -3.123 C 40.696 -3.116 40.78 -3.108 40.834 -3.087 C 40.889 -3.063 40.994 -2.908 40.89 -2.896 C 40.724 -2.874 40.59 -2.901 40.427 -2.944 C 40.248 -2.995 40.07 -3.057 39.929 -3.091 C 39.809 -3.118 39.768 -3.112 39.725 -3.123 C 39.69 -3.134 39.648 -3.151 39.579 -3.218 C 39.524 -3.272 39.458 -3.283 39.335 -3.304 C 38.929 -3.367 38.452 -3.305 38.023 -3.329 C 37.865 -3.339 37.74 -3.248 37.611 -3.264 C 37.552 -3.271 37.511 -3.312 37.483 -3.383 C 37.444 -3.483 37.445 -3.551 37.301 -3.546 C 37.269 -3.546 37.244 -3.522 37.115 -3.511 C 37.003 -3.507 36.941 -3.494 36.941 -3.462 C 36.941 -3.438 36.971 -3.403 37.032 -3.353 C 37.048 -3.343 37.055 -3.336 37.055 -3.328 C 37.055 -3.321 37.049 -3.312 37.044 -3.3 C 37.03 -3.27 37.013 -3.242 36.993 -3.218 C 36.922 -3.123 36.925 -3.174 36.825 -3.231 C 36.699 -3.308 36.519 -3.396 36.41 -3.469 C 36.36 -3.505 36.33 -3.547 36.311 -3.597 C 36.252 -3.729 36.251 -3.858 36.183 -3.992 C 36.139 -4.077 36.087 -4.167 36.035 -4.253 C 35.999 -4.315 35.958 -4.379 35.921 -4.441 C 35.845 -4.562 35.789 -4.647 35.673 -4.739 C 35.588 -4.809 35.505 -4.883 35.47 -4.975 C 35.419 -5.104 35.485 -5.202 35.54 -5.317 C 35.554 -5.351 35.557 -5.374 35.546 -5.392 C 35.525 -5.431 35.445 -5.431 35.371 -5.43 C 35.297 -5.427 35.223 -5.382 35.155 -5.331 C 35.13 -5.312 35.078 -5.251 35.034 -5.237 C 35.014 -5.23 34.996 -5.234 34.985 -5.258 C 34.936 -5.346 34.927 -5.497 34.909 -5.593 C 34.887 -5.701 34.859 -5.81 34.818 -5.852 C 34.779 -5.893 34.727 -5.895 34.681 -5.877 C 34.648 -5.864 34.614 -5.837 34.596 -5.805 C 34.561 -5.745 34.553 -5.676 34.547 -5.603 C 34.543 -5.554 34.544 -5.525 34.536 -5.516 C 34.519 -5.493 34.488 -5.507 34.456 -5.536 C 34.397 -5.588 34.331 -5.684 34.316 -5.703 C 34.151 -5.915 34.033 -6.15 33.881 -6.371 C 33.734 -6.585 33.573 -6.761 33.343 -6.918 C 33.194 -7.02 33.042 -7.075 32.885 -7.155 C 32.78 -7.209 32.706 -7.27 32.61 -7.338 C 32.561 -7.374 32.509 -7.402 32.458 -7.427 C 32.345 -7.481 32.228 -7.519 32.117 -7.576 L 31.541 -7.858 C 31.439 -7.91 31.341 -7.963 31.244 -8.019 C 31.035 -8.136 30.826 -8.259 30.628 -8.401 C 30.542 -8.466 30.454 -8.528 30.363 -8.59 C 30.233 -8.682 30.114 -8.732 30.021 -8.867 C 29.969 -8.935 29.934 -8.987 29.888 -9.034 C 29.857 -9.067 29.819 -9.097 29.77 -9.127 C 29.735 -9.148 29.7 -9.171 29.665 -9.194 C 29.628 -9.219 29.608 -9.233 29.591 -9.254 C 29.577 -9.272 29.569 -9.296 29.551 -9.331 C 29.463 -9.524 29.366 -9.755 29.221 -9.913 C 29.12 -10.023 29.03 -10.053 28.896 -10.097 C 28.777 -10.136 28.683 -10.184 28.559 -10.265 C 28.086 -10.563 27.668 -10.811 27.169 -11.021 C 27.101 -11.051 27.041 -11.072 26.969 -11.086 L 26.475 -11.204 L 25.94 -11.345 C 25.794 -11.384 25.766 -11.356 25.625 -11.345 C 25.51 -11.333 25.377 -11.342 25.248 -11.355 C 25.136 -11.365 25.028 -11.38 24.932 -11.384 C 24.879 -11.386 24.87 -11.392 24.838 -11.4 C 24.728 -11.433 24.572 -11.381 24.476 -11.356 C 24.28 -11.309 24.052 -11.145 23.863 -11.005 C 23.75 -10.919 23.655 -10.829 23.554 -10.724 C 23.269 -10.434 23.04 -10.195 22.713 -9.98 C 22.504 -9.846 22.319 -9.686 22.113 -9.583 C 22.035 -9.542 21.951 -9.513 21.871 -9.476 C 21.803 -9.446 21.733 -9.415 21.663 -9.384 C 21.618 -9.365 21.605 -9.369 21.561 -9.365 C 21.546 -9.365 21.533 -9.362 21.521 -9.36 C 21.434 -9.355 21.293 -9.609 21.365 -9.691 C 21.475 -9.816 21.64 -9.864 21.776 -9.953 C 21.948 -10.06 22.661 -10.325 22.733 -10.557 C 22.761 -10.651 22.678 -10.773 22.615 -10.837 C 22.591 -10.86 22.569 -10.872 22.542 -10.878 C 22.453 -10.892 22.294 -10.835 22.198 -10.823 C 22.003 -10.801 21.791 -10.791 21.68 -10.829 C 21.333 -10.947 21.205 -10.998 21.142 -11.024 C 21.066 -11.054 20.993 -11.075 20.918 -11.112 C 20.799 -11.172 20.635 -11.247 20.516 -11.262 C 20.486 -11.267 20.468 -11.267 20.45 -11.257 C 20.439 -11.25 20.424 -11.238 20.408 -11.222 C 20.356 -11.167 20.311 -11.1 20.249 -11.05 C 20.136 -10.955 20.068 -10.935 19.961 -10.94 C 19.821 -10.947 19.561 -11.018 19.404 -10.934 C 19.362 -10.91 19.325 -10.878 19.305 -10.826 C 19.263 -10.73 19.302 -10.583 19.213 -10.274 C 19.183 -10.176 19.163 -10.184 19.255 -10.13 L 19.576 -9.946 C 19.695 -9.879 19.741 -9.836 19.677 -9.695 C 19.595 -9.517 19.447 -9.467 19.359 -9.46 C 19.242 -9.45 19.17 -9.521 18.914 -9.517 C 18.772 -9.513 18.815 -9.517 18.742 -9.633 C 18.706 -9.692 18.665 -9.722 18.625 -9.728 C 18.57 -9.735 18.511 -9.707 18.438 -9.669 C 18.353 -9.623 18.274 -9.526 18.19 -9.434 C 18.132 -9.369 18.05 -9.341 18.065 -9.243 C 18.076 -9.166 18.141 -9.159 18.208 -9.105 C 18.353 -8.991 18.527 -8.748 18.481 -8.576 C 18.45 -8.462 18.274 -8.314 18.062 -8.259 C 17.942 -8.219 17.846 -8.175 17.751 -8.125 C 17.66 -8.074 17.573 -8.016 17.469 -7.944 L 17.312 -7.83 C 17.064 -7.695 16.792 -7.603 16.569 -7.434 C 16.298 -7.23 16.16 -7.061 15.834 -7.014 C 15.321 -6.941 14.975 -6.857 14.67 -6.706 C 14.226 -6.482 13.869 -6.115 13.208 -5.414 C 13.063 -5.307 13.043 -5.091 12.912 -4.991 C 12.878 -4.964 12.832 -4.945 12.772 -4.94 C 12.614 -4.93 12.518 -5.052 12.222 -4.844 L 11.907 -4.562 C 11.701 -4.382 11.476 -4.262 11.264 -4.094 C 10.147 -3.22 9.039 -1.403 8.346 -0.176 C 8.238 0.015 8.152 0.215 7.987 0.364 C 7.728 0.6 7.456 0.61 7.151 0.799 C 6.684 1.084 6.3 1.716 6.1 2.218 C 5.83 2.891 5.637 3.398 6.032 4.066 C 6.124 4.227 6.221 4.403 6.272 4.675 C 6.294 4.805 6.313 4.845 6.434 4.921 C 6.693 5.083 6.853 5.122 6.905 5.259 C 6.993 5.482 6.84 5.761 6.753 5.963 L 6.495 6.576 C 6.446 6.689 6.439 6.864 6.337 6.894 C 6.255 6.918 6.098 6.915 6.053 6.813 C 6.01 6.721 6.148 6.605 6.13 6.528 C 6.116 6.466 6.075 6.448 6.024 6.458 C 5.891 6.482 5.686 6.685 5.661 6.708 C 5.573 6.791 5.512 6.806 5.491 6.858 C 5.479 6.893 5.479 6.938 5.495 7.022 C 5.541 7.261 5.555 7.446 5.555 7.594 C 5.555 7.917 5.488 8.05 5.528 8.107 C 5.561 8.158 5.676 8.155 5.979 8.171 C 6.047 8.174 6.068 8.18 6.082 8.155 C 6.088 8.141 6.091 8.116 6.101 8.074 L 6.12 7.995 C 6.128 7.952 6.142 7.913 6.166 7.889 C 6.186 7.865 6.214 7.854 6.259 7.858 C 6.327 7.867 6.434 7.857 6.457 7.927 C 6.477 7.981 6.468 8.072 6.472 8.148 C 6.495 8.392 6.482 8.682 6.47 8.756 C 6.426 9.099 6.128 9.397 6.21 9.741 C 6.27 9.987 6.331 10.144 6.274 10.211 C 6.229 10.264 6.116 10.261 5.874 10.205 C 5.654 10.156 5.683 10.144 5.565 10.345 C 5.411 10.612 5.282 10.868 5.205 11.154 C 5.133 11.417 5.129 11.453 5.379 11.538 C 5.569 11.604 5.719 11.684 5.809 11.805 C 5.899 11.923 5.932 12.082 5.884 12.306 C 5.87 12.382 5.872 12.459 5.864 12.532 C 5.851 12.655 5.8 12.719 5.706 12.796 C 5.639 12.85 5.572 12.902 5.561 12.962 C 5.553 13.018 5.593 13.083 5.735 13.165 C 5.829 13.222 5.948 13.224 6.067 13.186 C 6.231 13.137 6.249 13.096 6.251 12.929 C 6.254 12.786 6.239 12.643 6.275 12.499 C 6.311 12.36 6.347 12.211 6.35 12.109 C 6.354 11.86 6.458 11.568 6.488 11.265 C 6.512 11.026 6.514 10.798 6.569 10.691 C 6.654 10.526 7.214 10.773 7.255 10.928 C 7.335 11.215 6.796 11.643 6.695 11.916 C 6.488 12.466 6.509 13.249 6.514 13.817 C 6.515 14.104 6.468 14.276 6.372 14.548 C 6.201 15.032 6.02 15.529 5.87 16.007 C 5.758 16.363 5.68 16.679 5.654 17.049 C 5.577 18.224 5.665 19.472 5.813 20.63 C 5.834 20.893 5.844 21.12 5.896 21.348 C 5.942 21.539 6.042 21.695 6.152 21.851 C 6.405 22.212 6.577 22.599 6.744 23.008 C 6.845 23.253 6.933 23.5 6.978 23.77 C 7.04 24.134 6.928 24.328 6.782 24.644 C 6.48 25.281 6.207 25.908 5.944 26.563 C 5.918 26.625 5.933 26.73 5.87 26.748 C 5.835 26.757 5.781 26.812 5.731 26.778 C 5.692 26.752 5.707 26.628 5.683 26.61 C 5.537 26.509 5.432 26.769 5.35 27.049 C 5.269 27.336 5.124 27.636 5.507 27.642 C 5.729 27.646 5.733 27.516 5.773 27.337 C 5.792 27.252 5.753 27.177 5.773 27.141 C 5.784 27.126 5.804 27.116 5.852 27.119 C 5.905 27.123 5.906 27.127 5.922 27.177 C 5.949 27.263 5.944 27.32 5.933 27.429 C 5.944 27.537 5.998 27.59 6.051 27.687 C 6.132 27.834 6.217 28.024 6.266 28.137 C 6.317 28.334 6.407 28.322 6.534 28.372 C 6.602 28.4 6.73 28.49 6.602 28.552 C 6.544 28.579 6.456 28.579 6.401 28.583 L 6.229 28.592 C 5.991 28.649 5.809 28.676 5.616 28.834 C 5.469 28.954 5.366 29.091 5.246 29.284 C 5.106 29.616 5.063 29.722 4.883 29.841 C 4.708 29.957 4.563 30.002 4.363 30.042 L 3.699 30.178 L 2.713 30.323 C 2.652 30.333 2.667 30.328 2.622 30.306 C 2.582 30.29 2.525 30.276 2.569 30.258 C 2.627 30.233 2.689 30.227 2.746 30.214 C 2.894 30.182 3.025 30.164 3.14 30.149 C 3.429 30.111 3.785 30.02 3.978 29.898 C 4.141 29.796 4.274 29.624 4.092 29.523 C 3.858 29.393 3.781 29.259 3.666 29.227 C 3.58 29.2 3.47 29.237 3.248 29.382 C 3.099 29.478 3.008 29.583 2.907 29.582 C 2.829 29.582 2.818 29.542 2.783 29.481 L 2.708 29.352 C 2.665 29.281 2.65 29.26 2.566 29.241 C 2.496 29.224 2.412 29.218 2.378 29.242 L 2.348 29.442 C 2.334 29.513 2.308 29.711 2.234 29.727 C 2.22 29.731 2.155 29.691 2.08 29.645 C 1.979 29.579 1.859 29.495 1.827 29.477 C 1.754 29.436 1.681 29.398 1.603 29.364 C 1.408 29.309 1.328 29.318 1.295 29.357 C 1.254 29.407 1.292 29.504 1.264 29.568 C 1.247 29.609 1.147 29.676 1.082 29.719 C 1.008 29.764 0.987 29.719 0.899 29.689 C 0.851 29.673 0.826 29.663 0.8 29.67 C 0.785 29.674 0.769 29.685 0.747 29.705 C 0.719 29.731 0.703 29.742 0.696 29.757 C 0.69 29.771 0.696 29.788 0.708 29.824 C 0.733 29.908 0.674 29.979 0.601 30.033 C 0.471 30.133 0.319 30.13 0.173 30.203 C -0.067 30.325 -0.212 30.521 -0.364 30.67 C -0.486 30.791 -0.629 30.81 -0.74 30.911 C -0.788 31.006 -0.862 31.052 -0.736 31.058 C -0.551 31.042 -0.313 31.091 -0.145 31.133 C -0.104 31.144 -0.002 31.191 0.057 31.189 C 0.087 31.188 0.105 31.174 0.099 31.132 C 0.073 31.11 0.076 31.08 0.093 31.051 C 0.118 31.007 0.173 30.967 0.223 30.96 C 0.291 30.951 0.363 31.114 0.438 31.144 C 0.563 31.192 0.655 31.133 0.769 31.069 C 1.072 30.903 1.357 30.646 1.677 30.501 C 1.815 30.438 1.9 30.5 1.953 30.469 C 2.018 30.431 2.049 30.445 2.068 30.476 C 2.107 30.536 1.724 30.799 1.655 30.839 L 1.332 31.034 L 0.927 31.266 L 0.432 31.616 L -0.031 31.917 L -0.38 32.115 L -0.866 32.451 C -0.988 32.553 -1.142 32.604 -1.26 32.693 C -1.351 32.758 -1.382 32.827 -1.502 32.846 L -1.991 32.811 L -2.205 32.784 C -2.352 32.765 -2.471 32.765 -2.619 32.777 L -2.804 32.792 C -2.905 32.795 -3.007 32.8 -3.107 32.796 C -3.148 32.795 -3.169 32.806 -3.172 32.764 C -3.173 32.756 -3.173 32.743 -3.169 32.73 C -3.166 32.714 -3.089 32.704 -3.072 32.703 L -2.619 32.63 C -2.552 32.619 -2.505 32.617 -2.472 32.598 C -2.443 32.578 -2.426 32.545 -2.418 32.476 C -2.413 32.424 -2.426 32.385 -2.454 32.355 C -2.583 32.212 -3.045 32.278 -3.375 32.238 C -3.622 32.226 -3.852 32.374 -3.854 32.503 C -3.855 32.539 -3.81 32.567 -3.761 32.595 C -3.731 32.612 -3.654 32.65 -3.639 32.682 C -3.632 32.697 -3.632 32.718 -3.646 32.734 C -3.677 32.769 -3.726 32.772 -3.768 32.779 C -3.888 32.8 -4.001 32.823 -4.117 32.854 C -4.25 32.888 -4.382 32.933 -4.516 32.972 C -4.888 33.082 -5.247 33.164 -5.607 33.206 C -5.838 33.232 -6.018 33.24 -6.241 33.166 C -6.418 33.106 -6.538 33.026 -6.684 32.903 C -6.938 32.688 -7.151 32.584 -7.417 32.511 C -7.633 32.452 -7.856 32.412 -8.078 32.373 C -8.255 32.342 -8.428 32.301 -8.604 32.256 C -8.795 32.209 -8.987 32.164 -9.181 32.148 C -9.333 32.135 -9.479 32.146 -9.622 32.171 C -9.832 32.206 -10.073 32.245 -10.274 32.317 C -10.392 32.359 -10.508 32.416 -10.637 32.45 C -10.734 32.474 -10.813 32.49 -10.901 32.524 C -10.954 32.543 -10.987 32.553 -11.045 32.554 C -11.251 32.564 -11.445 32.535 -11.633 32.61 C -11.682 32.631 -11.706 32.637 -11.73 32.631 C -11.76 32.626 -11.786 32.606 -11.85 32.587 C -11.871 32.578 -11.894 32.571 -11.916 32.564 C -11.939 32.546 -11.955 32.536 -11.971 32.532 C -11.993 32.527 -12.015 32.531 -12.048 32.535 L -12.3 32.57 C -12.4 32.584 -12.488 32.61 -12.585 32.581 C -12.637 32.563 -12.66 32.546 -12.662 32.532 C -12.666 32.501 -12.636 32.483 -12.587 32.466 C -12.444 32.426 -12.139 32.417 -12.039 32.29 C -11.981 32.214 -12.021 32.125 -12.07 32.058 C -12.113 31.998 -12.165 31.947 -12.219 31.899 C -12.291 31.833 -12.353 31.786 -12.422 31.753 C -12.502 31.714 -12.591 31.688 -12.685 31.669 C -12.831 31.639 -12.983 31.627 -13.119 31.603 C -13.231 31.584 -13.329 31.562 -13.427 31.531 C -13.765 31.43 -14.005 31.164 -14.248 30.923 C -14.419 30.751 -14.578 30.56 -14.831 30.529 C -14.993 30.511 -15.088 30.567 -15.235 30.608 C -15.637 30.718 -16.042 30.603 -16.455 30.486 C -17.247 30.263 -18.348 29.997 -19.152 30.081 L -20.348 30.205 C -20.67 30.238 -21.152 30.262 -21.43 30.079 C -21.528 30.013 -21.55 29.892 -21.639 29.821 C -21.699 29.774 -21.758 29.758 -21.815 29.758 C -21.993 29.762 -22.055 29.837 -22.168 29.953 C -22.768 30.571 -22.87 30.333 -23.191 30.421 C -23.259 30.438 -23.312 30.462 -23.38 30.472 C -23.439 30.479 -23.51 30.479 -23.553 30.431 C -23.568 30.416 -23.572 30.395 -23.599 30.351 C -23.634 30.295 -23.73 30.284 -23.789 30.273 L -24.064 30.223 C -24.236 30.191 -24.368 30.143 -24.523 30.055 C -24.604 30.007 -24.652 29.964 -24.68 29.898 C -24.767 29.697 -24.752 29.605 -24.941 29.436 C -25.082 29.312 -25.265 29.186 -25.438 29.055 C -25.578 28.947 -25.69 28.824 -25.817 28.716 C -25.911 28.636 -25.955 28.603 -26.025 28.597 C -26.16 28.589 -26.257 28.666 -26.372 28.724 C -26.682 28.876 -26.529 28.724 -26.921 28.992 C -27.028 29.066 -27.141 29.119 -27.248 29.195 C -27.368 29.284 -27.468 29.319 -27.61 29.368 L -27.895 29.466 C -27.997 29.502 -28.07 29.53 -28.16 29.59 L -28.316 29.695 C -28.406 29.757 -28.498 29.8 -28.595 29.852 C -28.754 29.938 -28.907 30.035 -29.076 30.119 C -29.118 30.139 -29.133 30.146 -29.153 30.141 C -29.191 30.13 -29.253 30.08 -29.249 30.037 C -29.241 29.979 -29.084 29.921 -29.035 29.895 C -28.82 29.788 -28.604 29.632 -28.407 29.486 C -28.364 29.453 -28.337 29.441 -28.329 29.424 C -28.313 29.389 -28.352 29.348 -28.402 29.312 C -28.486 29.252 -28.536 29.22 -28.586 29.165 C -28.651 29.095 -28.702 29.007 -28.756 28.926 C -28.828 28.81 -28.809 28.646 -28.915 28.555 C -28.972 28.506 -29.049 28.515 -29.142 28.558 C -29.417 28.687 -29.833 29.119 -30.294 29.277 C -30.393 29.31 -30.479 29.343 -30.578 29.306 L -30.677 29.27 C -30.708 29.259 -30.726 29.256 -30.74 29.26 C -30.759 29.266 -30.775 29.279 -30.805 29.301 L -30.914 29.374 C -30.946 29.396 -30.97 29.411 -31.005 29.423 C -31.038 29.435 -31.05 29.438 -31.056 29.449 C -31.059 29.459 -31.059 29.473 -31.056 29.5 C -31.053 29.568 -31.046 29.593 -31.083 29.649 L -31.189 29.824 C -31.211 29.859 -31.21 29.901 -31.199 29.943 C -31.152 30.108 -31.011 30.282 -30.911 30.416 C -30.704 30.685 -30.438 30.971 -30.275 31.123 C -30.228 31.17 -30.196 31.21 -30.179 31.26 C -30.169 31.29 -30.163 31.324 -30.161 31.363 C -30.156 31.451 -30.173 31.538 -30.188 31.624 C -30.2 31.698 -30.187 31.742 -30.131 31.798 C -30.049 31.882 -29.905 31.942 -29.789 31.98 C -29.755 31.991 -29.724 31.999 -29.698 32.006 C -29.674 32.017 -29.661 32.029 -29.652 32.042 C -29.639 32.065 -29.643 32.094 -29.648 32.13 C -29.654 32.171 -29.656 32.191 -29.648 32.206 C -29.642 32.22 -29.623 32.227 -29.583 32.236 C -29.549 32.244 -29.524 32.241 -29.493 32.206 C -29.414 32.072 -29.386 32.087 -29.319 32.072 C -29.298 32.068 -29.272 32.059 -29.235 32.038 C -29.186 32.007 -29.165 31.956 -29.153 32.036 C -29.15 32.052 -29.149 32.066 -29.147 32.077 C -29.139 32.115 -29.125 32.132 -29.079 32.152 C -29.05 32.163 -29.024 32.179 -28.998 32.188 C -28.981 32.194 -28.966 32.191 -28.937 32.189 L -28.919 32.196 L -28.917 32.216 C -28.926 32.248 -28.93 32.265 -28.927 32.282 C -28.92 32.338 -28.87 32.391 -28.842 32.433 C -28.751 32.567 -28.593 32.816 -28.488 33.105 C -28.438 33.244 -28.353 33.538 -28.284 33.751 C -28.239 33.887 -28.214 33.988 -28.203 34.135 C -28.195 34.261 -28.187 34.409 -28.174 34.501 C -28.165 34.593 -28.125 34.679 -28.089 34.764 C -28.049 34.861 -28.027 34.928 -27.995 34.955 C -27.955 34.99 -27.888 34.938 -27.881 34.906 C -27.86 34.818 -27.923 34.649 -27.928 34.458 C -27.931 34.388 -27.909 34.323 -27.889 34.252 C -27.87 34.186 -27.878 34.135 -27.863 34.107 C -27.854 34.087 -27.83 34.082 -27.771 34.095 C -27.706 34.11 -27.646 34.155 -27.623 34.21 C -27.609 34.239 -27.626 34.33 -27.629 34.361 C -27.639 34.501 -27.648 34.638 -27.651 34.776 C -27.652 34.928 -27.662 35.051 -27.693 35.198 L -27.724 35.353 C -27.774 35.579 -27.806 35.73 -27.67 35.902 C -27.636 35.943 -27.618 35.959 -27.593 35.964 C -27.59 35.966 -27.586 35.968 -27.582 35.967 C -27.503 35.931 -27.476 35.94 -27.483 35.986 C -27.486 36.001 -27.493 36.026 -27.518 36.082 C -27.62 36.291 -27.874 36.702 -27.623 36.857 C -27.594 36.875 -27.558 36.89 -27.513 36.901 C -27.374 36.935 -27.365 36.938 -27.406 37.092 C -27.478 37.354 -27.49 37.656 -27.765 37.748 C -27.818 37.764 -27.853 37.785 -27.874 37.81 C -27.904 37.843 -27.917 37.886 -27.94 37.955 C -27.97 38.043 -27.992 38.141 -28.015 38.231 C -28.097 38.572 -28.095 38.898 -28.097 39.257 C -28.099 39.449 -28.067 39.644 -28.027 39.835 C -28.005 39.954 -27.979 40.072 -27.958 40.188 C -27.947 40.248 -27.935 40.306 -27.932 40.367 C -27.931 40.418 -27.928 40.421 -27.893 40.458 C -27.84 40.509 -27.702 40.483 -27.63 40.488 C -27.541 40.495 -27.542 40.49 -27.504 40.572 C -27.483 40.624 -27.465 40.626 -27.513 40.659 C -27.553 40.686 -27.583 40.683 -27.634 40.686 C -27.704 40.69 -27.788 40.682 -27.846 40.724 C -27.874 40.744 -27.89 40.769 -27.908 40.794 C -27.94 40.85 -27.96 40.851 -28.023 40.873 C -28.108 40.907 -28.169 40.926 -28.212 40.967 C -28.254 41.011 -28.277 41.061 -28.287 41.114 C -28.299 41.179 -28.288 41.25 -28.271 41.316 C -28.25 41.39 -28.215 41.452 -28.176 41.513 C -28.069 41.679 -28.044 41.821 -27.999 42.01 C -27.969 42.131 -27.938 42.254 -27.917 42.372 C -27.883 42.559 -27.877 42.733 -27.946 42.866 C -27.969 42.937 -27.985 42.975 -27.986 43.017 C -27.989 43.05 -27.981 43.085 -27.96 43.142 L -27.798 43.573 C -27.568 44.192 -27.375 44.796 -27.499 45.463 C -27.537 45.658 -27.575 45.783 -27.586 45.869 C -27.594 45.939 -27.613 45.923 -27.625 45.958 C -27.634 45.983 -27.639 46.036 -27.634 46.169 C -27.632 46.244 -27.621 46.294 -27.637 46.316 C -27.652 46.333 -27.681 46.335 -27.737 46.321 C -27.825 46.283 -27.923 46.251 -27.993 46.187 C -28.035 46.151 -28.077 46.115 -28.118 46.079 C -28.158 46.052 -28.202 46.04 -28.246 46.044 C -28.342 46.062 -28.426 46.111 -28.522 46.129 C -28.672 46.133 -28.744 46.106 -28.867 46.021 C -28.946 45.965 -29.027 45.911 -29.069 45.929 C -29.088 45.937 -29.111 45.978 -29.107 46.007 C -29.102 46.059 -29.026 46.083 -29.024 46.12 C -29.024 46.137 -29.038 46.164 -29.056 46.171 C -29.114 46.188 -29.241 46.097 -29.292 46.072 C -29.334 46.049 -29.375 46.013 -29.416 46.017 C -29.43 46.02 -29.447 46.029 -29.463 46.046 C -29.48 46.068 -29.484 46.102 -29.474 46.127 C -29.444 46.197 -29.302 46.339 -29.272 46.367 L -29.088 46.535 C -29.054 46.565 -28.893 46.732 -28.92 46.784 C -28.937 46.811 -28.984 46.835 -29.011 46.854 C -29.03 46.869 -29.019 46.906 -29.046 46.915 C -29.086 46.929 -29.125 46.884 -29.161 46.879 C -29.253 46.869 -29.344 46.861 -29.435 46.845 C -29.502 46.833 -29.526 46.797 -29.572 46.804 C -29.624 46.81 -29.646 46.854 -29.69 46.868 C -29.762 46.89 -29.853 46.79 -29.923 46.768 C -29.965 46.754 -30.004 46.758 -30.041 46.768 C -30.085 46.777 -30.129 46.791 -30.173 46.779 C -30.218 46.767 -30.271 46.695 -30.305 46.662 C -30.376 46.593 -30.419 46.527 -30.429 46.424 C -30.436 46.353 -30.451 46.278 -30.46 46.204 C -30.483 46.036 -30.46 45.896 -30.559 45.745 L -30.658 45.6 C -30.707 45.529 -30.742 45.471 -30.759 45.41 C -30.788 45.301 -30.777 45.209 -30.796 45.111 C -30.833 44.919 -31.022 44.838 -31.159 44.723 C -31.199 44.688 -31.226 44.676 -31.234 44.654 C -31.252 44.615 -31.202 44.557 -31.205 44.51 C -31.206 44.475 -31.221 44.443 -31.238 44.405 C -31.271 44.333 -31.308 44.26 -31.328 44.185 C -31.343 44.134 -31.348 44.088 -31.352 44.026 C -31.354 43.964 -31.363 43.912 -31.385 43.864 C -31.409 43.805 -31.451 43.758 -31.497 43.715 C -31.543 43.671 -31.585 43.642 -31.619 43.604 C -31.675 43.539 -31.685 43.46 -31.705 43.378 C -31.742 43.221 -31.781 43.179 -31.897 43.069 L -32.029 42.947 C -32.094 42.887 -32.104 42.85 -32.11 42.782 C -32.114 42.728 -32.108 42.7 -32.143 42.658 C -32.16 42.638 -32.176 42.629 -32.195 42.628 C -32.234 42.625 -32.275 42.655 -32.315 42.674 C -32.366 42.697 -32.417 42.721 -32.469 42.743 C -32.509 42.769 -32.541 42.794 -32.564 42.823 C -32.601 42.866 -32.613 42.911 -32.641 42.942 C -32.689 42.998 -32.732 42.972 -32.791 42.962 C -32.869 42.952 -32.936 42.992 -32.994 43.043 C -33.121 43.152 -33.236 43.247 -33.42 43.224 C -33.565 43.206 -33.695 43.11 -33.791 42.981 C -33.857 42.893 -33.907 42.792 -33.937 42.688 C -33.971 42.566 -33.961 42.5 -33.948 42.376 C -33.941 42.31 -33.89 42.03 -33.938 41.988 C -34.018 41.917 -34.205 41.926 -34.304 41.916 L -35.275 41.82 L -36.649 41.688 L -38.024 41.559 L -39.397 41.432 L -40.772 41.309 L -42.146 41.189 L -43.521 41.074 L -44.897 40.961 C -45.004 40.951 -45.225 40.976 -45.294 40.866 C -45.322 40.823 -45.333 40.758 -45.325 40.656 L -45.06 37.273 C -45.056 37.246 -45.059 37.231 -45.065 37.22 C -45.08 37.201 -45.11 37.205 -45.144 37.201 L -47.453 37.036 L -47.819 37.01 C -47.842 37.003 -47.853 37.002 -47.861 36.996 C -47.871 36.987 -47.871 36.975 -47.876 36.944 C -47.881 36.916 -47.885 36.902 -47.879 36.896 C -47.875 36.886 -47.861 36.883 -47.834 36.873 C -47.739 36.837 -47.647 36.828 -47.554 36.798 C -47.35 36.738 -47.314 36.65 -47.004 36.644 C -46.939 36.642 -46.902 36.64 -46.872 36.622 C -46.836 36.602 -46.811 36.563 -46.766 36.485 C -46.597 36.191 -46.435 35.832 -46.12 35.668 C -46.038 35.626 -46.003 35.617 -45.915 35.626 L -45.857 35.631 C -45.724 35.645 -45.699 35.515 -45.645 35.417 C -45.622 35.377 -45.59 35.333 -45.538 35.284 C -45.214 34.972 -45.056 34.925 -44.674 34.693 C -44.544 34.615 -44.419 34.521 -44.279 34.463 C -44.207 34.435 -44.133 34.415 -44.04 34.393 C -43.993 34.385 -43.946 34.374 -43.898 34.363 C -43.826 34.344 -43.786 34.333 -43.749 34.349 C -43.713 34.359 -43.701 34.388 -43.678 34.397 C -43.667 34.4 -43.654 34.401 -43.637 34.393 C -43.626 34.389 -43.617 34.385 -43.607 34.379 C -43.575 34.362 -43.571 34.359 -43.578 34.323 C -43.587 34.261 -43.613 34.246 -43.56 34.212 C -43.526 34.19 -43.491 34.17 -43.455 34.152 C -43.367 34.109 -43.303 34.081 -43.245 34.045 C -43.074 33.938 -42.931 33.751 -42.811 33.595 C -42.651 33.389 -42.5 33.14 -42.479 32.897 C -42.429 32.351 -42.237 32.469 -41.128 32.036 C -41.083 32.018 -41.054 32.006 -41.024 31.995 C -40.971 31.98 -40.851 32.037 -40.829 32.018 C -40.813 32.006 -40.804 31.984 -40.797 31.96 C -40.772 31.855 -40.76 31.809 -40.775 31.775 C -40.789 31.745 -40.828 31.729 -40.902 31.687 C -40.918 31.677 -40.928 31.668 -40.935 31.658 C -40.946 31.639 -40.943 31.616 -40.946 31.579 C -41.002 30.856 -40.981 30.406 -40.867 29.862 C -40.86 29.831 -40.829 29.765 -40.82 29.709 C -40.812 29.659 -40.821 29.617 -40.879 29.612 C -40.953 29.605 -41.072 29.651 -41.151 29.66 C -41.337 29.683 -41.583 29.627 -41.771 29.609 L -42.612 29.536 L -42.649 29.533 L -43.531 29.459 L -44.409 29.385 L -45.289 29.313 L -46.046 29.252 L -47.048 29.172 L -47.929 29.104 L -48.809 29.037 C -48.955 29.026 -49.048 29.031 -49.13 28.988 C -49.194 28.953 -49.247 28.892 -49.292 28.817 C -49.378 28.677 -49.439 28.493 -49.496 28.378 L -49.768 27.812 L -50.06 27.208 L -50.155 27.014 L -50.954 25.375 L -51.437 24.384 L -51.764 23.72 C -51.81 23.623 -51.845 23.54 -51.848 23.457 C -51.859 23.135 -51.185 22.57 -50.98 22.339 C -50.91 22.26 -50.832 22.202 -50.875 22.079 C -50.906 21.994 -50.951 21.931 -51.003 21.882 C -51.063 21.826 -51.138 21.788 -51.217 21.76 C -51.275 21.739 -51.311 21.72 -51.333 21.673 C -51.391 21.556 -51.363 21.404 -51.35 21.281 L -51.321 21.027 C -51.305 20.959 -51.326 20.89 -51.381 20.819 C -51.468 20.703 -51.511 20.623 -51.518 20.543 C -51.529 20.435 -51.475 20.349 -51.443 20.252 C -51.414 20.173 -51.407 20.091 -51.391 20.01 C -51.381 19.955 -51.368 19.897 -51.342 19.841 C -51.259 19.651 -51.293 19.461 -51.355 19.272 C -51.397 19.139 -51.454 19.007 -51.492 18.877 C -51.524 18.763 -51.58 18.754 -51.677 18.703 C -51.707 18.688 -51.726 18.673 -51.725 18.652 C -51.724 18.623 -51.684 18.578 -51.58 18.503 L -51.021 18.152 L -50.688 17.922 L -50.17 17.546 L -49.876 17.346 L -48.771 16.644 L -48.297 16.356 C -48.19 16.291 -48.082 16.228 -47.974 16.168 C -47.527 15.922 -47.107 15.712 -46.693 15.542 C -46.272 15.37 -45.858 15.237 -45.433 15.149 C -44.865 15.044 -44.406 15.006 -43.953 15.01 C -43.479 15.014 -43.007 15.063 -42.428 15.149 C -42 15.213 -41.559 15.263 -41.125 15.271 C -40.62 15.28 -40.135 15.198 -39.648 15.087 C -38.714 14.873 -37.851 14.936 -37.04 14.354 C -36.857 14.221 -36.673 14.116 -36.486 14.021 C -36.349 13.95 -36.207 13.884 -36.064 13.817 C -35.858 13.717 -35.609 13.634 -35.493 13.418 C -35.465 13.365 -35.446 13.309 -35.425 13.241 C -35.404 13.166 -35.392 13.12 -35.365 13.098 C -35.336 13.074 -35.294 13.076 -35.212 13.096 C -35.106 13.123 -35.02 13.124 -34.907 13.124 L -34.43 13.126 C -34.246 13.126 -34.078 13.113 -33.909 13.092 C -33.676 13.063 -33.49 13.043 -33.255 13.056 C -32.726 13.08 -32.245 13.084 -31.771 13.003 C -31.605 12.976 -31.438 12.935 -31.276 12.885 C -31.118 12.836 -30.958 12.775 -30.796 12.701 C -30.291 12.467 -29.775 12.278 -29.253 12.099 C -28.582 11.867 -27.965 11.692 -27.26 11.566 C -26.962 11.513 -26.693 11.483 -26.509 11.512 C -26.462 11.52 -26.465 11.584 -26.476 11.636 C -26.491 11.708 -26.491 11.741 -26.514 11.763 C -26.529 11.776 -26.552 11.786 -26.592 11.796 L -26.886 11.874 L -27.346 11.955 C -27.411 11.968 -27.652 11.97 -27.641 12.077 C -27.637 12.12 -27.509 12.182 -27.349 12.197 C -27.218 12.211 -27.05 12.184 -27.016 12.179 C -26.817 12.151 -26.627 12.103 -26.434 12.049 C -26.066 11.945 -25.75 11.807 -25.358 11.794 C -25.05 11.785 -24.691 11.805 -24.334 11.813 C -23.837 11.824 -23.35 11.813 -22.853 11.839 C -22.783 11.839 -22.719 11.847 -22.654 11.825 C -22.585 11.805 -22.541 11.79 -22.5 11.873 C -22.479 11.92 -22.482 11.921 -22.551 11.959 C -22.6 11.985 -22.63 11.996 -22.64 12.021 C -22.644 12.039 -22.64 12.063 -22.625 12.103 C -22.588 12.196 -22.495 12.256 -22.408 12.291 C -22.269 12.349 -22.071 12.411 -21.964 12.538 C -21.909 12.604 -21.874 12.748 -21.888 12.871 C -21.898 12.954 -21.929 13.028 -21.991 13.063 C -22.09 13.116 -22.285 13.169 -22.354 13.2 C -22.522 13.277 -22.508 13.267 -22.476 13.446 C -22.454 13.579 -22.404 13.701 -22.324 13.73 C -22.282 13.747 -22.255 13.732 -22.171 13.692 C -22.002 13.614 -21.918 13.522 -21.822 13.452 C -21.769 13.414 -21.712 13.382 -21.634 13.364 C -21.505 13.336 -21.432 13.367 -21.323 13.436 C -21.178 13.527 -21.086 13.655 -21.13 13.846 C -21.144 13.904 -21.152 13.958 -21.143 13.982 C -21.118 14.05 -21.076 14.063 -21.033 14.076 C -20.9 14.111 -20.819 14.023 -20.795 13.891 C -20.786 13.828 -20.786 13.741 -20.787 13.657 C -20.788 13.622 -20.8 13.585 -20.8 13.558 C -20.797 13.534 -20.787 13.521 -20.75 13.525 C -20.609 13.54 -20.508 13.527 -20.416 13.52 C -20.313 13.51 -20.221 13.506 -20.101 13.554 C -20.037 13.579 -19.975 13.642 -19.914 13.769 C -19.89 13.838 -19.835 13.888 -19.769 13.92 C -19.709 13.95 -19.581 13.975 -19.474 13.961 C -19.428 13.955 -19.386 13.944 -19.354 13.924 C -19.27 13.87 -19.276 13.746 -19.314 13.667 C -19.347 13.6 -19.406 13.541 -19.469 13.485 C -19.571 13.393 -20.098 13.208 -20.053 13.049 C -20.046 13.024 -20.011 12.983 -19.965 12.933 C -19.802 12.755 -19.657 12.614 -19.544 12.449 C -19.512 12.4 -19.479 12.348 -19.451 12.294 L -19.182 12.294 L -19.182 12.08 L -19.366 12.08 L -19.358 12.049 C -19.344 12 -19.351 11.941 -19.322 11.923 C -19.29 11.905 -19.227 11.938 -19.192 11.944 C -19.109 11.963 -18.995 11.975 -18.904 11.975 C -18.819 11.973 -18.757 11.962 -18.757 11.931 C -18.759 11.853 -18.853 11.855 -18.875 11.796 C -18.888 11.755 -18.865 11.668 -18.771 11.577 C -18.681 11.492 -18.535 11.472 -18.389 11.475 C -18.333 11.477 -18.352 11.479 -18.336 11.474 C -18.285 11.459 -18.327 11.408 -18.393 11.327 C -18.47 11.229 -18.558 11.137 -18.631 11.044 C -18.69 10.969 -18.651 10.832 -18.72 10.733 C -18.803 10.615 -19.004 10.61 -19.137 10.612 C -19.214 10.615 -19.289 10.629 -19.359 10.664 C -19.451 10.712 -19.527 10.779 -19.528 10.888 C -19.528 10.93 -19.527 10.972 -19.548 11 C -19.578 11.038 -19.729 11.124 -19.777 11.166 C -19.897 11.275 -20.032 11.359 -20.171 11.445 C -20.235 11.484 -20.282 11.496 -20.316 11.487 C -20.335 11.481 -20.622 11.085 -20.684 11.024 C -20.88 10.831 -20.949 10.618 -20.925 10.464 C -20.911 10.384 -20.874 10.321 -20.807 10.26 C -20.635 10.097 -20.411 10.02 -20.195 9.932 C -19.926 9.815 -19.82 9.784 -19.779 9.784 L -19.765 9.784 C -19.509 9.8 -19.406 9.745 -19.29 9.544 C -19.052 9.125 -18.49 8.737 -18.025 8.449 C -17.888 8.365 -17.765 8.296 -17.646 8.215 C -17.257 7.951 -16.899 7.662 -16.49 7.416 C -15.979 7.109 -15.468 6.841 -14.875 6.561 C -14.558 6.412 -14.316 6.317 -14.13 5.991 C -14.079 5.899 -14.028 5.812 -13.979 5.726 C -13.588 5.049 -12.982 4.406 -12.365 3.869 C -11.837 3.409 -11.276 2.981 -10.667 2.638 C -9.611 2.039 -8.634 1.493 -7.686 0.765 C -7.439 0.574 -7.153 0.39 -6.997 0.113 C -6.922 -0.017 -6.863 -0.147 -6.753 -0.242 C -6.616 -0.355 -6.389 -0.336 -6.182 -0.396 C -5.979 -0.457 -5.876 -0.54 -5.934 -0.743 C -6.002 -0.969 -6.09 -1.103 -6.191 -1.22 C -6.297 -1.337 -6.417 -1.438 -6.547 -1.6 C -6.622 -1.688 -6.65 -1.693 -6.727 -1.581 C -6.771 -1.517 -6.79 -1.453 -6.841 -1.421 C -6.925 -1.367 -7.088 -1.438 -7.151 -1.501 C -7.207 -1.557 -7.251 -1.64 -7.499 -1.797 C -7.532 -1.811 -7.558 -1.82 -7.579 -1.83 C -7.616 -1.845 -7.627 -1.856 -7.625 -1.869 C -7.623 -1.891 -7.592 -1.915 -7.569 -1.958 C -7.542 -2.011 -7.531 -2.091 -7.479 -2.101 C -7.34 -2.126 -7.156 -2.073 -6.984 -2.065 C -6.746 -2.055 -6.49 -2.116 -6.263 -2.172 C -6.101 -2.214 -5.797 -2.253 -5.689 -2.389 C -5.636 -2.455 -5.623 -2.555 -5.6 -2.73 C -5.57 -2.943 -5.528 -3.181 -5.417 -3.305 C -5.358 -3.371 -5.292 -3.394 -5.285 -3.436 C -5.266 -3.537 -5.524 -3.729 -5.592 -3.778 C -6.017 -4.09 -6.45 -4.122 -6.134 -4.691 C -6.106 -4.742 -6.099 -4.78 -6.104 -4.813 C -6.111 -4.88 -6.23 -5.053 -6.292 -5.091 C -6.327 -5.111 -6.347 -5.075 -6.421 -5.111 C -6.477 -5.139 -6.492 -5.214 -6.534 -5.322 C -6.641 -5.603 -6.548 -5.729 -6.434 -6.034 C -6.313 -6.36 -6.172 -6.642 -5.994 -6.942 C -5.86 -7.17 -5.696 -7.36 -5.518 -7.539 C -5.392 -7.666 -5.25 -7.783 -5.12 -7.907 C -4.975 -8.05 -4.936 -8.127 -4.871 -8.316 C -4.852 -8.374 -4.823 -8.401 -4.789 -8.413 C -4.681 -8.451 -4.404 -8.419 -4.275 -8.43 C -3.703 -8.476 -2.758 -8.557 -2.597 -8.598 C -2.263 -8.682 -1.786 -9.11 -1.394 -9.527 C -1.3 -9.629 -1.208 -9.725 -1.133 -9.821 C -0.966 -10.033 -0.861 -10.239 -0.772 -10.25 C -0.709 -10.261 -0.655 -10.169 -0.594 -9.902 C -0.552 -9.686 -0.549 -9.595 -0.494 -9.513 C -0.456 -9.457 -0.393 -9.405 -0.274 -9.321 C -0.038 -9.151 0.061 -9.078 0.104 -9.032 C 0.202 -8.929 0.157 -8.784 0.295 -8.672 C 0.367 -8.612 0.459 -8.563 0.539 -8.49 C 0.773 -8.271 0.7 -8.184 0.533 -8.043 C 0.347 -7.885 0.263 -7.724 0.105 -7.58 C -0.072 -7.412 -0.055 -7.477 -0.253 -7.511 C -0.361 -7.529 -0.488 -7.475 -0.606 -7.429 C -0.76 -7.369 -0.9 -7.404 -1.051 -7.366 C -1.328 -7.278 -1.445 -7.222 -1.666 -7.023 C -1.933 -6.785 -2.149 -6.543 -2.375 -6.268 L -2.606 -5.98 C -2.727 -5.835 -2.769 -5.35 -2.509 -5.542 C -2.424 -5.604 -2.322 -5.69 -2.222 -5.775 C -2.149 -5.84 -2.076 -5.903 -2.01 -5.96 C -1.807 -6.136 -1.719 -6.148 -1.548 -6.119 C -1.419 -6.101 -1.253 -6.033 -1.127 -6.066 C -0.819 -6.15 -0.549 -6.35 -0.274 -6.546 C -0.112 -6.662 0.214 -6.926 0.464 -7.071 C 0.561 -7.128 0.621 -7.153 0.689 -7.157 C 0.747 -7.162 0.81 -7.146 0.905 -7.122 C 1.066 -7.082 1.201 -7.03 1.326 -7.072 C 1.455 -7.115 1.567 -7.254 1.578 -7.394 C 1.589 -7.566 1.528 -7.58 1.675 -7.699 C 1.791 -7.794 1.962 -7.911 2 -7.939 C 2.076 -7.994 2.145 -8.055 2.201 -8.121 C 2.272 -8.211 2.297 -8.293 2.294 -8.373 C 2.294 -8.532 2.187 -8.683 2.146 -8.854 C 2.099 -9.043 2.103 -9.116 2.163 -9.178 C 2.297 -9.313 2.529 -9.423 2.688 -9.534 C 2.812 -9.622 2.971 -9.792 3.134 -9.879 C 3.292 -9.964 3.355 -9.921 3.512 -9.871 C 3.774 -9.787 4.141 -9.802 4.444 -9.852 C 4.758 -9.905 4.819 -10.074 5.078 -10.207 C 5.342 -10.342 5.661 -10.423 5.975 -10.5 C 6.343 -10.593 6.703 -10.707 7.064 -10.829 C 7.207 -10.878 7.347 -10.925 7.485 -10.974 C 8.009 -11.158 8.431 -11.333 8.826 -11.586 C 8.998 -11.695 9.164 -11.821 9.331 -11.97 C 9.552 -12.165 9.713 -12.338 9.852 -12.6 C 10.015 -12.908 10.646 -13.884 10.484 -14.221 C 10.304 -14.592 9.805 -14.873 9.687 -15.23 C 9.645 -15.356 9.64 -15.424 9.663 -15.467 C 9.695 -15.529 9.789 -15.537 9.912 -15.593 C 10.29 -15.762 10.621 -16.264 10.99 -16.341 C 11.154 -16.378 11.365 -16.326 11.572 -16.286 C 11.747 -16.252 12.019 -16.202 12.188 -16.287 C 12.367 -16.378 12.698 -16.578 12.898 -16.526 C 12.981 -16.508 13.033 -16.431 13.038 -16.26 C 13.041 -16.066 12.956 -15.961 12.886 -15.846 C 12.786 -15.677 12.879 -15.656 12.859 -15.53 C 12.824 -15.345 12.31 -15.277 12.034 -15.179 C 11.86 -15.116 11.76 -14.975 11.669 -14.821 C 11.649 -14.787 11.624 -14.759 11.588 -14.726 C 11.461 -14.606 11.326 -14.537 11.313 -14.46 C 11.304 -14.413 11.341 -14.362 11.453 -14.296 C 11.607 -14.204 11.995 -13.996 12.181 -14.112 C 12.253 -14.155 12.146 -14.271 12.262 -14.396 C 12.303 -14.438 12.398 -14.487 12.494 -14.522 C 12.578 -14.555 12.665 -14.578 12.718 -14.579 C 12.817 -14.585 12.855 -14.579 12.896 -14.597 C 13.069 -14.667 13.235 -14.85 13.403 -14.948 C 13.478 -14.99 13.551 -15.039 13.629 -15.077 C 13.84 -15.182 13.895 -15.383 14.06 -15.541 C 14.341 -15.813 14.265 -15.896 14.065 -16.211 C 13.893 -16.477 14.077 -16.517 14.326 -16.643 L 14.768 -16.862 C 14.998 -16.979 15.167 -17.092 15.318 -17.218 C 15.493 -17.368 15.639 -17.536 15.82 -17.755 C 15.938 -17.897 15.985 -17.932 15.98 -18.121 C 15.976 -18.253 15.969 -18.342 16.08 -18.414 C 16.25 -18.521 16.255 -18.456 16.32 -18.297 C 16.41 -18.07 16.238 -17.895 16.127 -17.696 C 16.094 -17.592 16.06 -17.501 16.042 -17.407 C 16.027 -17.33 16.021 -17.249 16.033 -17.156 C 16.095 -16.607 16.561 -16.298 17.113 -16.193 C 17.308 -16.157 17.479 -16.155 17.651 -16.176 C 17.827 -16.193 17.998 -16.228 18.169 -16.257 C 18.275 -16.273 18.381 -16.281 18.488 -16.274 C 18.574 -16.27 18.662 -16.256 18.748 -16.229 C 18.809 -16.211 18.835 -16.199 18.839 -16.18 C 18.849 -16.13 18.727 -16.059 18.742 -16.018 C 18.765 -15.964 18.903 -16.007 18.939 -16.02 C 19.029 -16.052 19.076 -16.074 19.172 -16.063 C 19.443 -16.03 19.861 -15.846 20.212 -15.803 C 20.244 -15.799 20.256 -15.803 20.26 -15.789 C 20.27 -15.758 20.256 -15.753 20.3 -15.761 C 20.459 -15.789 20.626 -16.069 20.603 -16.195 C 20.599 -16.217 20.585 -16.234 20.57 -16.252 C 20.511 -16.31 20.493 -16.314 20.57 -16.379 C 20.681 -16.474 20.78 -16.536 20.872 -16.592 C 20.898 -16.606 20.922 -16.62 20.947 -16.638 C 20.978 -16.653 21.012 -16.69 21.048 -16.683 C 21.077 -16.68 21.074 -16.671 21.067 -16.649 C 21.059 -16.624 21.077 -16.631 21.096 -16.639 C 21.104 -16.643 21.117 -16.656 21.128 -16.643 C 21.137 -16.635 21.137 -16.597 21.142 -16.579 C 21.166 -16.478 21.191 -16.378 21.22 -16.274 C 21.228 -16.238 21.226 -16.213 21.221 -16.173 C 21.221 -16.153 21.207 -16.112 21.235 -16.105 C 21.244 -16.102 21.258 -16.103 21.269 -16.107 C 21.293 -16.122 21.32 -16.137 21.346 -16.153 C 21.419 -16.192 21.518 -16.189 21.599 -16.199 C 22.37 -16.281 22.104 -16.18 22.713 -16.279 C 22.941 -16.315 23.207 -16.339 23.406 -16.367 C 23.458 -16.376 23.5 -16.389 23.541 -16.403 C 23.572 -16.416 23.61 -16.442 23.644 -16.448 C 23.667 -16.451 23.701 -16.442 23.713 -16.42 L 23.771 -16.314 C 23.802 -16.264 23.834 -16.18 23.898 -16.169 C 23.964 -16.157 24.036 -16.222 24.083 -16.279 C 24.118 -16.319 24.15 -16.363 24.181 -16.404 C 24.274 -16.53 24.304 -16.6 24.311 -16.647 C 24.318 -16.704 24.296 -16.73 24.304 -16.781 C 24.313 -16.838 24.367 -16.929 24.565 -17.133 C 24.631 -17.202 24.715 -17.267 24.771 -17.347 C 24.794 -17.381 24.803 -17.42 24.826 -17.455 C 24.852 -17.5 24.914 -17.516 24.954 -17.547 C 25.249 -17.747 25.25 -18.178 25.398 -18.449 C 25.414 -18.484 25.434 -18.505 25.458 -18.521 C 25.479 -18.537 25.497 -18.554 25.517 -18.568 C 25.548 -18.599 25.553 -18.597 25.535 -18.637 C 25.531 -18.647 25.525 -18.656 25.521 -18.668 C 25.513 -18.694 25.521 -18.721 25.552 -18.725 C 25.584 -18.731 25.613 -18.733 25.644 -18.75 C 25.905 -18.88 25.903 -18.971 25.995 -19.009 C 26.029 -19.022 26.075 -19.027 26.152 -19.024 C 26.237 -19.024 26.294 -19.011 26.374 -18.988 C 26.612 -18.917 26.574 -19.16 26.83 -19.106 C 26.858 -19.1 26.873 -19.098 26.901 -19.1 C 27.234 -19.13 27.429 -19.142 27.644 -19.182 C 27.716 -19.196 27.862 -19.224 27.983 -19.263 C 28.054 -19.286 28.117 -19.329 28.152 -19.324 C 28.177 -19.318 28.191 -19.293 28.206 -19.263 C 28.215 -19.249 28.227 -19.233 28.237 -19.217 C 28.302 -19.114 28.302 -19.007 28.278 -18.901 C 28.233 -18.725 28.117 -18.558 28.128 -18.44 C 28.148 -18.24 28.289 -18.068 28.29 -17.842 C 28.29 -17.769 28.275 -17.707 28.237 -17.666 C 28.199 -17.62 28.148 -17.628 28.145 -17.612 C 28.145 -17.604 28.152 -17.593 28.174 -17.567 L 28.199 -17.544 C 28.214 -17.528 28.226 -17.53 28.248 -17.53 C 28.384 -17.535 28.476 -17.562 28.615 -17.55 C 28.664 -17.546 28.685 -17.542 28.688 -17.524 C 28.688 -17.513 28.679 -17.494 28.664 -17.46 C 28.653 -17.436 28.636 -17.409 28.62 -17.378 C 28.604 -17.343 28.593 -17.325 28.597 -17.314 C 28.599 -17.302 28.615 -17.295 28.65 -17.276 C 28.831 -17.182 28.848 -17.164 28.896 -17.069 C 28.906 -17.052 28.913 -17.048 28.919 -17.05 C 28.928 -17.057 28.935 -17.087 28.937 -17.111 L 28.978 -17.389 C 28.983 -17.409 28.984 -17.421 28.99 -17.428 C 28.995 -17.436 29.008 -17.438 29.036 -17.442 C 29.127 -17.458 29.236 -17.465 29.254 -17.52 C 29.279 -17.6 29.159 -17.68 29.104 -17.711 C 29.096 -17.716 29.072 -17.723 29.071 -17.733 C 29.068 -17.751 29.075 -17.791 29.078 -17.806 C 29.122 -18.051 29.548 -18.29 29.351 -18.617 C 29.334 -18.641 29.331 -18.654 29.329 -18.673 C 29.329 -18.703 29.334 -18.721 29.349 -18.729 C 29.379 -18.75 29.444 -18.749 29.486 -18.769 C 29.514 -18.784 29.542 -18.802 29.573 -18.827 C 29.889 -19.095 29.986 -19.514 30.307 -19.845 C 30.335 -19.876 30.37 -19.906 30.404 -19.936 C 30.444 -19.972 30.475 -19.994 30.492 -20.031 C 30.502 -20.052 30.507 -20.075 30.512 -20.104 C 30.524 -20.195 30.502 -20.291 30.507 -20.391 C 30.51 -20.413 30.512 -20.424 30.52 -20.433 C 30.527 -20.441 30.538 -20.445 30.556 -20.452 L 30.682 -20.499 C 30.702 -20.505 30.708 -20.512 30.717 -20.521 C 30.723 -20.531 30.726 -20.545 30.73 -20.563 C 30.759 -20.719 30.656 -20.937 30.653 -21.157 C 30.651 -21.201 30.656 -21.239 30.649 -21.276 C 30.643 -21.305 30.633 -21.324 30.633 -21.355 C 30.633 -21.367 30.635 -21.38 30.642 -21.389 C 30.647 -21.397 30.662 -21.396 30.689 -21.401 C 30.867 -21.438 30.944 -21.534 31.068 -21.606 C 31.111 -21.633 31.137 -21.653 31.158 -21.65 C 31.173 -21.646 31.186 -21.634 31.201 -21.608 C 31.222 -21.573 31.243 -21.541 31.27 -21.541 C 31.286 -21.542 31.309 -21.556 31.332 -21.566 C 31.365 -21.581 31.384 -21.574 31.402 -21.559 C 31.431 -21.532 31.432 -21.519 31.447 -21.51 C 31.491 -21.487 31.561 -21.501 31.614 -21.507 C 31.716 -21.521 31.912 -21.461 32.063 -21.417 C 32.166 -21.387 32.263 -21.352 32.365 -21.312 L 32.867 -21.111 L 33.098 -21.029 L 33.715 -20.826 C 33.758 -20.812 33.795 -20.803 33.834 -20.802 C 33.861 -20.802 33.89 -20.802 33.92 -20.803 C 33.985 -20.813 34.035 -20.819 34.081 -20.771 C 34.106 -20.742 34.106 -20.719 34.098 -20.687 C 34.088 -20.65 34.092 -20.637 34.109 -20.599 C 34.176 -20.451 34.336 -20.296 34.492 -20.213 C 34.533 -20.191 34.576 -20.171 34.582 -20.139 C 34.585 -20.121 34.58 -20.1 34.557 -20.075 L 34.48 -19.989 C 34.41 -19.914 34.404 -19.838 34.429 -19.77 C 34.459 -19.696 34.523 -19.631 34.592 -19.578 C 34.701 -19.494 34.828 -19.403 34.945 -19.336 C 35.276 -19.147 35.662 -19.159 36.039 -19.018 C 36.189 -18.963 36.319 -18.872 36.472 -18.816 C 36.6 -18.771 36.686 -18.701 36.726 -18.613 C 36.785 -18.493 36.761 -18.339 36.669 -18.171 C 36.63 -18.098 36.582 -18.041 36.53 -17.978 C 36.414 -17.839 36.302 -17.691 36.175 -17.563 C 35.953 -17.336 35.695 -17.137 35.452 -16.932 C 35.393 -16.881 35.331 -16.843 35.266 -16.803 L 34.85 -16.565 C 34.719 -16.491 34.589 -16.423 34.457 -16.352 C 34.388 -16.315 34.319 -16.281 34.251 -16.245 C 34.196 -16.217 34.155 -16.187 34.121 -16.153 C 34.068 -16.102 34.028 -16.043 33.99 -15.982 C 33.968 -15.947 33.945 -15.912 33.925 -15.877 C 33.855 -15.765 33.782 -15.636 33.671 -15.555 C 33.568 -15.478 33.306 -15.448 33.165 -15.393 C 33 -15.329 32.859 -15.273 32.765 -15.182 C 32.634 -15.057 32.628 -14.85 32.587 -14.681 L 32.519 -14.384 C 32.47 -14.175 32.486 -14.115 32.607 -13.937 L 32.784 -13.675 C 32.819 -13.622 32.856 -13.578 32.892 -13.536 C 32.944 -13.479 32.965 -13.433 33.007 -13.375 C 33.079 -13.277 33.137 -13.467 33.331 -13.417 C 33.407 -13.396 33.469 -13.349 33.535 -13.309 C 33.55 -13.302 33.565 -13.298 33.579 -13.296 C 33.718 -13.278 33.771 -13.298 33.914 -13.247 C 33.989 -13.224 34.046 -13.197 34.106 -13.165 C 34.236 -13.096 34.347 -13.003 34.463 -12.91 L 34.848 -12.601 C 35.056 -12.433 35.242 -12.232 35.432 -12.043 L 35.692 -11.763 C 35.771 -11.663 35.803 -11.549 35.874 -11.443 C 36.108 -11.104 36.666 -10.738 36.939 -10.556 C 36.946 -10.551 36.96 -10.545 36.961 -10.537 C 36.965 -10.53 36.96 -10.521 36.95 -10.511 C 36.939 -10.499 36.939 -10.504 36.922 -10.504 C 36.915 -10.504 36.906 -10.503 36.902 -10.496 C 36.895 -10.485 36.925 -10.464 36.933 -10.43 C 36.928 -10.388 36.925 -10.397 36.882 -10.401 C 36.774 -10.411 36.673 -10.411 36.558 -10.401 L 36.3 -10.383 C 36.288 -10.383 36.287 -10.369 36.285 -10.356 C 36.285 -10.346 36.281 -10.335 36.287 -10.327 C 36.318 -10.293 36.316 -10.18 36.312 -10.106 C 36.312 -10.103 36.302 -10.063 36.311 -10.044 C 36.312 -10.036 36.322 -10.035 36.332 -10.036 C 36.381 -10.042 36.428 -10.019 36.476 -9.995 C 36.6 -9.938 36.75 -9.828 36.806 -9.686 C 36.814 -9.669 36.817 -9.654 36.817 -9.641 C 36.817 -9.619 36.814 -9.614 36.803 -9.603 C 36.786 -9.584 36.75 -9.588 36.728 -9.569 C 36.693 -9.541 36.687 -9.482 36.675 -9.442 C 36.627 -9.272 36.578 -9.048 36.622 -8.889 C 36.677 -8.704 37.204 -8.408 37.444 -8.297 C 37.499 -8.271 37.515 -8.268 37.574 -8.276 C 37.635 -8.286 37.662 -8.292 37.679 -8.275 C 37.694 -8.264 37.704 -8.237 37.73 -8.188 L 37.883 -7.883 C 37.893 -7.862 37.902 -7.851 37.912 -7.841 C 37.936 -7.818 37.958 -7.816 37.967 -7.801 C 37.971 -7.794 37.974 -7.783 37.974 -7.767 C 37.971 -7.749 37.97 -7.731 37.967 -7.711 C 37.946 -7.482 38.319 -7.303 38.491 -7.197 C 38.521 -7.18 38.561 -7.155 38.595 -7.173 C 38.621 -7.185 38.633 -7.192 38.645 -7.191 C 38.652 -7.19 38.662 -7.185 38.682 -7.17 C 39.417 -6.612 40.57 -6.915 41.355 -6.945 C 41.412 -6.946 41.457 -6.949 41.513 -6.966 C 41.749 -7.037 41.946 -7.122 42.124 -7.195 C 42.177 -7.217 42.23 -7.239 42.283 -7.258 C 42.997 -7.515 43 -7.131 43.563 -7.855 C 43.58 -7.882 43.591 -7.896 43.607 -7.907 C 43.619 -7.918 43.632 -7.927 43.654 -7.935 L 43.688 -7.945 C 43.72 -7.956 43.739 -7.966 43.762 -7.966 C 43.777 -7.966 43.794 -7.963 43.818 -7.956 C 43.837 -7.952 43.855 -7.949 43.875 -7.944 C 43.914 -7.936 43.934 -7.933 43.951 -7.939 C 43.97 -7.945 43.986 -7.963 44.021 -7.99 C 44.503 -8.391 45.022 -8.703 45.523 -9.131 C 45.559 -9.162 45.581 -9.185 45.604 -9.227 C 45.656 -9.316 45.7 -9.42 45.823 -9.599 C 45.853 -9.644 45.887 -9.691 45.923 -9.735 C 46.047 -9.898 46.202 -10.07 46.333 -10.134 C 46.359 -10.145 46.386 -10.153 46.408 -10.153 C 46.435 -10.153 46.467 -10.151 46.491 -10.125 C 46.52 -10.097 46.55 -10.05 46.58 -9.983 C 46.599 -9.944 46.614 -9.927 46.607 -9.905 C 46.605 -9.893 46.596 -9.879 46.577 -9.861 C 46.45 -9.737 46.222 -9.598 46.286 -9.427 C 46.351 -9.258 46.386 -9.197 46.422 -9.197 C 46.478 -9.198 46.538 -9.32 46.691 -9.438 C 46.723 -9.464 46.734 -9.476 46.747 -9.475 C 46.752 -9.472 46.759 -9.458 46.772 -9.431 C 46.803 -9.366 46.829 -9.339 46.863 -9.339 C 46.895 -9.339 46.933 -9.362 46.984 -9.405 C 47.037 -9.446 47.028 -9.442 47.061 -9.385 C 47.231 -9.105 47.168 -9.086 47.264 -8.837 C 47.28 -8.792 47.292 -8.749 47.305 -8.704 C 47.305 -8.7 47.306 -8.693 47.309 -8.688 C 47.316 -8.671 47.355 -8.651 47.375 -8.671 C 47.379 -8.673 47.38 -8.682 47.385 -8.686 C 47.417 -8.735 47.44 -8.78 47.458 -8.818 C 47.516 -8.956 47.487 -9.029 47.516 -9.063 C 47.543 -9.094 47.619 -9.093 47.852 -9.079 C 47.895 -9.076 47.934 -9.074 47.975 -9.063 C 48.014 -9.057 48.027 -9.058 48.033 -9.043 C 48.035 -9.034 48.033 -9.02 48.031 -9.002 C 48.015 -8.836 47.958 -8.696 47.975 -8.623 C 47.986 -8.577 48.039 -8.559 48.081 -8.557 C 48.189 -8.55 48.295 -8.655 48.331 -8.737 C 48.343 -8.764 48.346 -8.78 48.339 -8.799 C 48.333 -8.822 48.329 -8.84 48.322 -8.857 C 48.306 -8.911 48.32 -8.942 48.341 -8.983 C 48.368 -9.03 48.393 -9.057 48.436 -9.087 C 48.537 -9.155 48.642 -9.185 48.666 -9.251 C 48.684 -9.303 48.656 -9.328 48.65 -9.366 C 48.648 -9.384 48.65 -9.405 48.661 -9.431 L 48.688 -9.485 L 48.701 -9.511 C 48.714 -9.535 48.712 -9.548 48.74 -9.552 C 48.757 -9.556 48.776 -9.559 48.793 -9.56 L 48.979 -9.591 C 48.996 -9.594 49 -9.594 49.004 -9.599 C 49.007 -9.603 49.011 -9.607 49.013 -9.614 L 49.132 -9.85 C 49.139 -9.857 49.143 -9.865 49.147 -9.872 C 49.154 -9.879 49.162 -9.886 49.171 -9.893 L 49.255 -9.963 C 49.287 -9.987 49.3 -9.995 49.339 -10.005 C 50.08 -10.16 50.438 -10.274 51.055 -10.745 C 51.086 -10.767 51.113 -10.787 51.147 -10.805 L 51.35 -10.912 C 51.398 -10.938 51.396 -10.974 51.36 -11.02 C 51.333 -11.057 51.287 -11.082 51.241 -11.07 L 51.228 -11.07 C 51.226 -11.068 51.219 -11.067 51.21 -11.066 L 50.748 -10.995 C 50.719 -10.991 50.706 -10.984 50.68 -10.97 C 50.407 -10.795 50.192 -10.675 49.95 -10.583 C 49.803 -10.526 49.646 -10.481 49.465 -10.442 C 49.401 -10.429 49.348 -10.415 49.292 -10.395 C 49.265 -10.385 49.243 -10.374 49.223 -10.359 C 49.171 -10.325 49.144 -10.293 49.084 -10.271 C 48.677 -10.114 48.745 -10.04 48.589 -9.892 C 48.557 -9.86 48.538 -9.85 48.498 -9.839 C 48.436 -9.821 48.386 -9.809 48.35 -9.771 C 48.317 -9.741 48.306 -9.707 48.292 -9.669 L 48.228 -9.496 C 48.221 -9.476 48.207 -9.465 48.185 -9.461 C 48.163 -9.458 48.141 -9.467 48.116 -9.479 C 48.078 -9.506 48.042 -9.552 48.052 -9.591 C 48.06 -9.63 48.067 -9.667 48.071 -9.703 C 48.077 -9.728 48.077 -9.749 48.074 -9.77 C 48.064 -9.864 48.002 -9.931 47.956 -10.006 C 47.95 -10.015 47.951 -10.021 47.951 -10.039 C 47.967 -10.254 47.943 -10.438 47.832 -10.486 C 47.803 -10.5 47.764 -10.504 47.719 -10.493 C 47.648 -10.478 47.587 -10.436 47.52 -10.411 C 47.512 -10.407 47.508 -10.407 47.504 -10.408 C 47.5 -10.411 47.501 -10.423 47.499 -10.436 C 47.478 -10.499 47.434 -10.555 47.383 -10.599 C 47.306 -10.668 47.214 -10.716 47.167 -10.738 C 47.141 -10.751 47.129 -10.755 47.133 -10.759 C 47.137 -10.765 47.152 -10.767 47.18 -10.783 C 47.597 -11.024 47.875 -11.058 47.815 -11.546 C 47.811 -11.59 47.807 -11.617 47.784 -11.654 L 47.664 -11.861 C 47.638 -11.907 47.624 -11.93 47.579 -11.959 C 47.508 -12.007 47.408 -12.057 47.304 -12.093 C 47.182 -12.139 47.056 -12.17 46.958 -12.168 C 46.906 -12.166 46.901 -12.163 46.876 -12.121 L 46.797 -11.996 C 46.787 -11.979 46.777 -11.951 46.754 -11.969 C 46.727 -11.987 46.691 -12.05 46.687 -12.063 C 46.649 -12.168 46.646 -12.21 46.68 -12.32 C 46.749 -12.529 46.916 -12.849 47.039 -13.057 C 47.103 -13.166 47.158 -13.231 47.249 -13.3 C 47.512 -13.506 47.696 -13.635 47.896 -13.899 C 48.039 -14.095 48.207 -14.225 48.199 -14.473 C 48.199 -14.501 48.197 -14.522 48.194 -14.538 C 48.189 -14.589 48.179 -14.606 48.236 -14.624 C 48.251 -14.631 48.273 -14.638 48.299 -14.646 C 48.478 -14.71 48.72 -14.873 48.888 -15.023 C 49.051 -15.168 49.094 -15.325 49.208 -15.501 C 49.333 -15.687 49.495 -15.656 49.622 -15.769 C 49.676 -15.817 49.685 -15.856 49.719 -15.891 C 49.761 -15.931 49.825 -15.95 49.876 -15.979 C 49.95 -16.02 50.021 -16.069 50.101 -16.102 C 50.259 -16.168 50.4 -16.183 50.49 -16.271 C 50.576 -16.356 50.556 -16.48 50.607 -16.579 C 50.652 -16.667 50.768 -16.762 50.898 -16.849 C 50.986 -16.907 51.439 -17.229 51.553 -17.189 C 51.631 -17.164 51.641 -16.536 51.652 -16.399 L 51.728 -15.468 C 51.732 -15.413 51.752 -15.387 51.782 -15.376 C 51.9 -15.327 51.979 -15.35 52.056 -15.306 C 52.096 -15.281 52.135 -15.243 52.175 -15.173 C 52.212 -15.109 52.226 -15.038 52.226 -14.965 C 52.226 -14.85 52.186 -14.733 52.143 -14.636 C 52.037 -14.399 51.856 -14.165 51.789 -13.892 C 51.76 -13.766 51.743 -13.726 51.835 -13.642 C 51.889 -13.594 51.933 -13.585 51.978 -13.596 C 52.035 -13.608 52.094 -13.655 52.171 -13.696 C 52.227 -13.727 52.283 -13.755 52.338 -13.786 C 52.41 -13.827 52.451 -13.839 52.466 -13.87 C 52.475 -13.891 52.475 -13.917 52.465 -13.962 L 52.47 -13.987 L 52.495 -14.003 L 52.557 -14.003 L 52.577 -14.011 C 52.746 -14.159 52.889 -14.288 52.992 -14.497 C 53.048 -14.61 53.101 -14.669 53.16 -14.678 C 53.235 -14.69 53.314 -14.624 53.412 -14.502 C 53.732 -14.098 54.022 -13.748 54.392 -13.371 C 54.484 -13.274 54.557 -13.182 54.633 -13.067 C 54.686 -12.994 54.656 -12.959 54.591 -12.91 L 54.533 -12.877 C 54.479 -12.844 54.417 -12.805 54.37 -12.751 C 54.329 -12.706 54.297 -12.653 54.291 -12.591 C 54.289 -12.536 54.317 -12.477 54.368 -12.351 C 54.563 -11.867 54.555 -11.611 55.017 -11.345 C 55.159 -11.264 55.25 -11.247 55.401 -11.212 C 55.444 -11.201 55.472 -11.188 55.48 -11.165 C 55.485 -11.142 55.471 -11.112 55.425 -11.066" id="path5181" stroke="#00539F" stroke-width="0.44" stroke-miterlimit="4" stroke-dasharray="" stroke-opacity="0.52071" fill="#FFFFFF" fill-rule="nonzero" fill-opacity="1"/></g><g id="g5183" transform="matrix(1,0,0,1,0.4,1.17902)"><path d=" M 0 0 L 0 36.699 C 3.013 37.254 6.745 37.53 11.199 37.53 C 16.927 37.53 21.012 36.653 23.45 34.896 C 25.89 33.14 27.109 30.86 27.109 28.052 C 27.109 26.295 26.583 24.722 25.52 23.328 C 24.457 21.935 22.914 20.862 20.9 20.121 L 20.9 20.013 C 23.266 19.385 25.113 18.256 26.444 16.621 C 27.774 14.982 28.44 13.045 28.44 10.811 C 28.44 7.537 27.072 4.828 24.338 2.68 C 21.603 0.525 16.613 -0.559 9.369 -0.559 C 5.746 -0.559 2.624 -0.371 0 0 M 8.482 31.045 L 8.482 22.451 L 11.365 22.451 C 13.637 22.451 15.394 22.857 16.623 23.672 C 17.852 24.484 18.46 25.61 18.46 27.05 C 18.46 29.897 16.391 31.321 12.251 31.321 C 10.534 31.321 9.277 31.229 8.482 31.045 M 8.482 16.354 L 8.482 5.93 C 8.944 5.818 10.089 5.764 11.92 5.764 C 14.267 5.764 16.104 6.225 17.425 7.15 C 18.748 8.072 19.404 9.402 19.404 11.141 C 19.404 12.84 18.72 14.133 17.352 15.021 C 15.984 15.908 14.044 16.354 11.532 16.354 L 8.482 16.354 Z M 63.741 7.594 L 65.071 0.941 C 62.521 -0.207 59.176 -0.779 55.037 -0.779 C 48.735 -0.779 43.792 0.941 40.197 4.367 C 36.603 7.795 34.802 12.342 34.802 18.014 C 34.802 24.002 36.761 28.798 40.678 32.403 C 44.596 36.003 49.641 37.806 55.813 37.806 C 59.971 37.806 63.205 37.235 65.515 36.09 L 63.741 29.323 C 61.431 30.325 58.918 30.823 56.2 30.823 C 52.449 30.823 49.456 29.729 47.21 27.551 C 44.966 25.372 43.839 22.356 43.839 18.512 C 43.839 14.762 44.947 11.797 47.156 9.607 C 49.363 7.416 52.395 6.316 56.257 6.316 C 59.046 6.316 61.542 6.744 63.741 7.594 M 73.096 37.197 L 81.689 37.197 L 81.689 -0.168 L 73.096 -0.168 L 73.096 37.197 Z M 115.76 22.506 L 115.76 15.576 L 99.971 15.576 L 99.971 6.816 L 115.76 6.816 L 115.76 -0.168 L 91.378 -0.168 L 91.378 37.197 L 115.76 37.197 L 115.76 30.211 L 99.971 30.211 L 99.971 22.506 L 115.76 22.506 Z" id="path5185" stroke="#000000" stroke-width="0.8" stroke-miterlimit="4" stroke-dasharray="" stroke-opacity="1" fill="#000000" fill-rule="nonzero" fill-opacity="1"/></g></g></svg>