<?xml version="1.0" encoding="UTF-8" standalone="no"?>
<svg
   xmlns:svg="http://www.w3.org/2000/svg"
   xmlns="http://www.w3.org/2000/svg"
   xmlns:xlink="http://www.w3.org/1999/xlink"
   width="35.128754mm"
   height="21.56558mm"
   viewBox="0 0 35.128754 21.56558"
   version="1.1"
   id="svg15218"
>
  <defs     id="defs15212">
		
    <linearGradient
       id="lgBlue2Green"       
    >
      <stop
         style="stop-color:#004bce;stop-opacity:1"
         offset="0"
         id="stop000" />
      <stop
         style="stop-color:#004bce;stop-opacity:1"
         offset=".15"
         id="stop015" />
      <stop
         style="stop-color:#2bce75;stop-opacity:1"
         offset=".85"
         id="stop085" />
      <stop
         style="stop-color:#2bce75;stop-opacity:1"
         offset="1"
         id="stop100" />
    </linearGradient>
    <linearGradient
       xlink:href="#lgBlue2Green"
       id="linearGradient_Blue_to_Green"

       x1="33.572524"
       y1="33.658168"
       x2="44.155128"
       y2="44.240795"
       gradientUnits="userSpaceOnUse" 	   
   
	   spreadMethod="pad"
	/>


  </defs>
	<style id="styleBCIELogo">
	 .bars {
		fill-opacity:1;
		fill-rule:nonzero;
		fill:url(#linearGradient_Blue_to_Green);
		stroke:none;
	 }
	 .bar {
		xfill:#004BCE;
		stroke:none;
		stroke-width:0.01
		stroke:#004BCE;		
	 }
	 .letter {
        fill:#004bce;
		fill-opacity:1;
		fill-rule:nonzero;
		stroke:none;
	 }

	 /* Colocar .bars en este estilo para animar con líneas*/
	 .lineAnimation, .barsX {
		fill-opacity:0;
		stroke:#004BCE;stroke-width:0.277252;
		stroke-dasharray: 100px;
		stroke-dashoffset: 100px;
		animation: dash 3s linear infinite  ;
	 }
	 @keyframes dash {
		to {
			stroke-dashoffset: 0;
			fill-opacity:1;
		}
	 }
	 /* fin animación en líneas */
	 

	</style>


  <g id="logoBCIE"
     transform="translate(-31.572524,-24.746969)">
	<g id="baras" class="bars">
		<path id="bar1" class="bar"
			d="m 33.572524,33.658168 v 1.326797 c 0.0046,0.0011 0.0092,0.0021 0.01376,0.0032 v 0 l 1.329973,-1.329972 z"         
		/>
		<path id="bar2" class="bar"
			d="m 36.111113,33.658168 -1.580092,1.580444 c 0.420511,0.129469 0.831145,0.281517 1.231195,0.454378 v 0 l 2.034116,-2.034822 z"		
		/>
		<path id="bar3" class="bar"
			d="m 38.991896,33.658168 -2.420761,2.420761 c 0.365125,0.190147 0.718961,0.399344 1.060803,0.624416 v 0 l 3.045178,-3.045177 z"
		/>
		<path id="bar4" class="bar"
			d="m 41.872327,33.658168 -3.541889,3.541536 c 0.316794,0.243063 0.621947,0.500591 0.913694,0.77223 v 0 l 4.313767,-4.313766 z"		
		/>
		<path id="bar5" class="bar"
			d="m 39.841032,38.56954 c 0.272345,0.291394 0.529873,0.596194 0.772231,0.913341 v 0 l 3.541889,-3.541183 v -1.685572 z"		
		/>
		<path id="bar6" class="bar"
			d="m 41.109974,40.181381 c 0.225425,0.342195 0.434269,0.695678 0.624769,1.060803 v 0 l 2.420409,-2.420056 v -1.685924 z"		
		/>
		<path id="bar7" class="bar"
			d="m 42.120682,42.051103 c 0.172509,0.40005 0.324203,0.811037 0.454025,1.231548 v 0 l 1.580445,-1.580445 v -1.685219 z"		
		/>
		<path id="bar8" class="bar"
			d="m 42.825532,44.227037 c 7.06e-4,0.0046 0.0018,0.0092 0.0028,0.01376 v 0 h 1.326797 v -1.343378 z"		
		/>
    </g>
	
    <g id="gBCIE" >
		<path id="pathBCIE_B" class="letter"
			d="m 36.439267,30.509943 c 0,-0.218369 -0.08184,-0.369711 -0.245886,-0.454731 -0.164042,-0.08396 -0.382764,-0.126294 -0.655814,-0.126294 h -0.707672 v 1.206853 h 0.71508 c 0.09948,0 0.202495,-0.0085 0.309386,-0.02611 0.106892,-0.01729 0.203553,-0.04833 0.290689,-0.09313 0.08678,-0.04445 0.157339,-0.10795 0.212373,-0.189795 0.05433,-0.08184 0.08184,-0.187325 0.08184,-0.316794 m -0.17145,-2.093736 c 0,-0.178858 -0.06844,-0.309386 -0.204964,-0.391231 -0.136525,-0.08184 -0.339019,-0.122766 -0.60713,-0.122766 h -0.625828 v 1.087614 h 0.685447 c 0.238478,0 0.423333,-0.04833 0.554919,-0.144992 0.131587,-0.09701 0.197556,-0.239536 0.197556,-0.428625 m 1.445683,2.212975 c 0,0.288219 -0.05715,0.530225 -0.17145,0.726369 -0.1143,0.196498 -0.265641,0.354189 -0.45473,0.473428 -0.188736,0.119239 -0.403578,0.204611 -0.644172,0.256822 -0.2413,0.05221 -0.488245,0.07832 -0.741539,0.07832 H 33.60046 v -5.275439 h 2.101145 c 0.203552,0 0.412044,0.02117 0.625827,0.0635 0.213431,0.04198 0.407106,0.1143 0.581378,0.2159 0.173567,0.101953 0.315384,0.239889 0.424392,0.413456 0.109361,0.173919 0.164042,0.395111 0.164042,0.663222 0,0.293158 -0.07937,0.535517 -0.238478,0.726722 -0.15875,0.191206 -0.367595,0.329142 -0.625828,0.413456 v 0.01482 c 0.148872,0.02505 0.289278,0.07091 0.420864,0.137936 0.131586,0.06703 0.245886,0.152753 0.3429,0.256823 0.09701,0.104422 0.173919,0.22613 0.231069,0.365477 0.0568,0.138995 0.08573,0.295275 0.08573,0.469195"
		/>
		<path id="pathBCIE_C" class="letter"
			d="m 42.154161,32.071091 c -0.342547,0.156281 -0.737658,0.234597 -1.184628,0.234597 -0.407458,0 -0.783519,-0.06703 -1.128889,-0.201083 -0.345369,-0.134408 -0.644525,-0.324203 -0.898172,-0.570089 -0.252941,-0.245886 -0.451908,-0.540103 -0.595841,-0.883003 -0.143934,-0.342547 -0.2159,-0.720019 -0.2159,-1.132416 0,-0.422275 0.07303,-0.804686 0.219427,-1.147586 0.146756,-0.342548 0.34925,-0.634648 0.607484,-0.875595 0.258233,-0.240594 0.561269,-0.425803 0.909108,-0.554919 0.347486,-0.129117 0.722842,-0.194028 1.125361,-0.194028 0.372181,0 0.738364,0.06597 1.098903,0.197555 0.360186,0.131587 0.651933,0.324203 0.875241,0.577498 l -0.863952,0.864305 c -0.119239,-0.163689 -0.275873,-0.285397 -0.469548,-0.365125 -0.193675,-0.07937 -0.392641,-0.118886 -0.596194,-0.118886 -0.223308,0 -0.428272,0.04092 -0.614892,0.122767 -0.185914,0.08184 -0.346427,0.194733 -0.48013,0.339019 -0.134409,0.143934 -0.238831,0.313972 -0.313267,0.510117 -0.07444,0.196497 -0.11183,0.411339 -0.11183,0.644878 0,0.238477 0.03739,0.4572 0.11183,0.655813 0.07444,0.198614 0.177447,0.368653 0.309033,0.510117 0.131939,0.141817 0.289631,0.252236 0.473428,0.331611 0.183797,0.07973 0.384881,0.119239 0.603603,0.119239 0.253294,0 0.474133,-0.04974 0.662869,-0.148872 0.189089,-0.09948 0.340431,-0.2286 0.454731,-0.387703 l 0.886531,0.834672 c -0.233187,0.268464 -0.521406,0.480484 -0.864306,0.637117"
		/>
		<path id="pathBCIE_I" class="letter"
			d="m 43.562485,26.888715 h 1.281642 v 5.275791 h -1.281642 z"
		/>
		<path id="pathBCIE_E" class="letter"
			d="m 45.663665,32.164295 v -5.275792 h 3.546828 v 1.07315 h -2.317397 v 0.998362 h 2.190749 v 1.020938 h -2.190749 v 1.095375 h 2.451452 v 1.087967 z"
		/>
    </g>
    <g id="gBanco">
		<path id="pathBanco_B" class="letter"
			d="m 45.979577,35.167386 h 0.282575 c 0.04022,0 0.08361,-0.0032 0.130175,-0.0088 0.04657,-0.006 0.08961,-0.01799 0.128764,-0.03634 0.03916,-0.01834 0.07197,-0.04516 0.09772,-0.08008 0.02575,-0.03493 0.03881,-0.08149 0.03881,-0.140053 0,-0.09349 -0.03175,-0.158397 -0.09525,-0.195086 -0.06315,-0.03669 -0.159103,-0.05503 -0.287514,-0.05503 h -0.295275 z m 0,-0.785636 h 0.280106 c 0.105127,0 0.185208,-0.02081 0.240241,-0.06244 0.05503,-0.04163 0.08255,-0.100894 0.08255,-0.1778 0,-0.08008 -0.02857,-0.136525 -0.08502,-0.170039 -0.0568,-0.03316 -0.144992,-0.05009 -0.265289,-0.05009 h -0.252589 z m -0.315383,-0.720372 h 0.690386 c 0.06703,0 0.132644,0.0078 0.197908,0.02364 0.06491,0.01587 0.12312,0.04163 0.17392,0.07761 0.0508,0.03598 0.09208,0.08184 0.123825,0.138994 0.03175,0.05645 0.04762,0.124884 0.04762,0.204964 0,0.09984 -0.02857,0.182739 -0.08537,0.24765 -0.05644,0.06491 -0.13088,0.111831 -0.222602,0.140053 v 0.0049 c 0.11183,0.01517 0.203552,0.05856 0.275166,0.130175 0.07161,0.07161 0.107597,0.167569 0.107597,0.287867 0,0.09666 -0.01905,0.1778 -0.0575,0.243769 -0.03845,0.06562 -0.0889,0.118886 -0.151342,0.15875 -0.06244,0.04022 -0.134056,0.06879 -0.215194,0.08643 -0.08079,0.01764 -0.162984,0.02611 -0.246239,0.02611 h -0.638175 z"
		/>
		<path id="pathBanco_A" class="letter"
			d="m 47.908319,34.884529 h -0.06738 c -0.04868,0 -0.09948,0.0021 -0.152752,0.0063 -0.05327,0.0042 -0.102659,0.01341 -0.147461,0.02752 -0.04516,0.01411 -0.08255,0.03422 -0.112537,0.05997 -0.02999,0.02575 -0.04516,0.06103 -0.04516,0.106186 0,0.02858 0.0064,0.05221 0.0187,0.07161 0.0127,0.01905 0.02893,0.03457 0.04904,0.04586 0.01976,0.01199 0.04233,0.02046 0.06738,0.0254 0.02505,0.0049 0.05009,0.0074 0.07479,0.0074 0.103716,0 0.182033,-0.02752 0.235302,-0.08255 0.05327,-0.05503 0.08008,-0.130175 0.08008,-0.225072 z m 0.0049,0.395464 h -0.0074 c -0.02999,0.05327 -0.07832,0.09701 -0.144992,0.131233 -0.06667,0.03422 -0.142875,0.05115 -0.227542,0.05115 -0.04868,0 -0.09913,-0.006 -0.151694,-0.0187 -0.05256,-0.01235 -0.100895,-0.03351 -0.144992,-0.06244 -0.0441,-0.02928 -0.08079,-0.06773 -0.110067,-0.115005 -0.02928,-0.04763 -0.04374,-0.106539 -0.04374,-0.176389 0,-0.09031 0.0254,-0.161925 0.0762,-0.215195 0.05115,-0.05327 0.116417,-0.09419 0.196497,-0.122414 0.08008,-0.02858 0.168981,-0.04727 0.266347,-0.05644 0.09737,-0.0095 0.19297,-0.01376 0.286456,-0.01376 v -0.02999 c 0,-0.07514 -0.02716,-0.130527 -0.08114,-0.166511 -0.05433,-0.03563 -0.118886,-0.05362 -0.194028,-0.05362 -0.0635,0 -0.124177,0.01305 -0.182386,0.03986 -0.05856,0.02681 -0.106891,0.05927 -0.145344,0.09737 l -0.15487,-0.182386 c 0.06809,-0.0635 0.147109,-0.111125 0.236009,-0.142523 0.08925,-0.03175 0.179916,-0.04762 0.271639,-0.04762 0.106538,0 0.194733,0.01517 0.263877,0.04516 0.06914,0.02999 0.123825,0.06914 0.163689,0.117475 0.04022,0.04833 0.06809,0.102658 0.08396,0.16263 0.01588,0.05997 0.02399,0.120298 0.02399,0.179917 v 0.730603 H 47.91323 Z"
		/>
		<path id="pathBanco_N" class="letter"
			d="m 48.493648,34.231678 h 0.285397 v 0.192617 h 0.0049 c 0.02646,-0.05997 0.07267,-0.112889 0.138642,-0.15875 0.06597,-0.04586 0.143933,-0.06915 0.233891,-0.06915 0.07867,0 0.145698,0.01411 0.201437,0.04163 0.05574,0.02752 0.1016,0.06385 0.137583,0.108656 0.03563,0.04515 0.06209,0.09666 0.07867,0.155222 0.01693,0.05821 0.02505,0.118533 0.02505,0.179916 v 0.750712 H 49.29904 v -0.665339 c 0,-0.03528 -0.0025,-0.07197 -0.0074,-0.110067 -0.0049,-0.03845 -0.01588,-0.07303 -0.03246,-0.104069 -0.01658,-0.03069 -0.03951,-0.05644 -0.06879,-0.0762 -0.02928,-0.02011 -0.06809,-0.02999 -0.116064,-0.02999 -0.04868,0 -0.09031,0.0095 -0.125236,0.02858 -0.03528,0.0194 -0.06385,0.04374 -0.08643,0.07373 -0.02258,0.02999 -0.03951,0.06456 -0.05115,0.104069 -0.01199,0.03916 -0.01764,0.07867 -0.01764,0.118887 v 0.6604 h -0.300214 z"
		/>
		<path id="pathBanco_C" class="letter"
			d="m 50.720029,34.564489 c -0.02328,-0.03351 -0.05856,-0.06138 -0.105128,-0.08396 -0.04692,-0.02258 -0.09419,-0.03351 -0.142522,-0.03351 -0.05503,0 -0.103364,0.01094 -0.144992,0.03351 -0.04163,0.02258 -0.07655,0.05221 -0.104069,0.0889 -0.02752,0.03669 -0.04762,0.07796 -0.06138,0.123825 -0.01341,0.04586 -0.01976,0.09208 -0.01976,0.138642 0,0.04692 0.0071,0.09313 0.02117,0.138994 0.01411,0.04586 0.03528,0.08714 0.06385,0.123825 0.02822,0.03669 0.06385,0.06632 0.106187,0.0889 0.04269,0.02222 0.09243,0.03387 0.148872,0.03387 0.04657,0 0.09349,-0.0092 0.140053,-0.02787 0.04692,-0.01834 0.08431,-0.0448 0.112536,-0.08008 l 0.187677,0.190147 c -0.04974,0.05362 -0.113594,0.0949 -0.191205,0.124178 -0.07761,0.02893 -0.16122,0.04374 -0.251531,0.04374 -0.08819,0 -0.172155,-0.01411 -0.25153,-0.04269 -0.07902,-0.02858 -0.148167,-0.06985 -0.207434,-0.125236 -0.05927,-0.05468 -0.105833,-0.121708 -0.140052,-0.200025 -0.03422,-0.07832 -0.05115,-0.16757 -0.05115,-0.267758 0,-0.09666 0.01693,-0.18415 0.05115,-0.262467 0.03422,-0.07832 0.08043,-0.144992 0.138641,-0.200378 0.05856,-0.05468 0.126648,-0.09737 0.203906,-0.127353 0.07761,-0.02999 0.160514,-0.04516 0.249061,-0.04516 0.08819,0 0.173919,0.01658 0.256117,0.05009 0.0829,0.03351 0.148166,0.07937 0.19685,0.137584 z"
		/>
		<path id="pathBanco_O" class="letter"
			d="m 51.305357,34.827167 c 0,0.04657 0.0071,0.09349 0.02152,0.140053 0.01411,0.04657 0.03528,0.08819 0.0635,0.124883 0.02857,0.03669 0.06421,0.06667 0.107598,0.08996 0.04339,0.02364 0.0949,0.03528 0.155222,0.03528 0.05997,0 0.111478,-0.01164 0.154869,-0.03528 0.04339,-0.02328 0.07902,-0.05327 0.107598,-0.08996 0.02857,-0.03669 0.04974,-0.07832 0.06385,-0.124883 0.01411,-0.04657 0.02117,-0.09349 0.02117,-0.140053 0,-0.04692 -0.0071,-0.09313 -0.02117,-0.138994 -0.01411,-0.04586 -0.03528,-0.08714 -0.06385,-0.123825 -0.02858,-0.03669 -0.06421,-0.06632 -0.107598,-0.0889 -0.04339,-0.02258 -0.0949,-0.03351 -0.154869,-0.03351 -0.06032,0 -0.111831,0.01094 -0.155222,0.03351 -0.04339,0.02258 -0.07902,0.05221 -0.107598,0.0889 -0.02822,0.03669 -0.04939,0.07796 -0.0635,0.123825 -0.01446,0.04586 -0.02152,0.09208 -0.02152,0.138994 m -0.305153,0 c 0,-0.09525 0.01729,-0.181681 0.05115,-0.258939 0.03422,-0.07761 0.08043,-0.143933 0.138994,-0.198967 0.05821,-0.05503 0.127353,-0.09772 0.207434,-0.127705 0.08008,-0.02999 0.1651,-0.04516 0.255411,-0.04516 0.08996,0 0.174978,0.01517 0.255058,0.04516 0.08008,0.02999 0.149225,0.07267 0.207786,0.127705 0.05821,0.05503 0.104423,0.121356 0.138642,0.198967 0.03422,0.07726 0.05115,0.163689 0.05115,0.258939 0,0.0949 -0.01693,0.181681 -0.05115,0.259997 -0.03422,0.07832 -0.08043,0.145345 -0.138642,0.201436 -0.05856,0.05574 -0.127705,0.09948 -0.207786,0.131234 -0.08008,0.03175 -0.1651,0.04762 -0.255058,0.04762 -0.09031,0 -0.175331,-0.01588 -0.255411,-0.04762 -0.08008,-0.03175 -0.149225,-0.0755 -0.207434,-0.131234 -0.05856,-0.05609 -0.104775,-0.123119 -0.138994,-0.201436 -0.03387,-0.07832 -0.05115,-0.1651 -0.05115,-0.259997"
		/>
    </g>
	<g id="gCentroamericano">
		<path id="pathCentroamericano_C" class="letter"
			d="m 46.942661,37.024973 c -0.04657,-0.0635 -0.107597,-0.109714 -0.182739,-0.138994 -0.07479,-0.02928 -0.148167,-0.04375 -0.220133,-0.04375 -0.09172,0 -0.174978,0.01658 -0.25012,0.05009 -0.07479,0.03351 -0.1397,0.07938 -0.193675,0.137583 -0.05433,0.05856 -0.09595,0.126647 -0.125236,0.205317 -0.02893,0.07832 -0.04374,0.163336 -0.04374,0.255058 0,0.09666 0.01411,0.185208 0.04269,0.264936 0.02822,0.08008 0.06879,0.148872 0.121003,0.206375 0.05256,0.0575 0.115711,0.102306 0.189089,0.134056 0.07338,0.03175 0.155927,0.04727 0.24765,0.04727 0.09525,0 0.179211,-0.0187 0.252588,-0.05609 0.07338,-0.03775 0.132645,-0.08714 0.177448,-0.148872 l 0.252941,0.1778 c -0.07832,0.09843 -0.174272,0.174272 -0.287866,0.2286 -0.113242,0.05433 -0.245886,0.08149 -0.397581,0.08149 -0.138642,0 -0.265642,-0.02293 -0.381705,-0.06879 -0.115712,-0.04586 -0.215195,-0.110067 -0.298803,-0.192617 -0.08361,-0.08255 -0.14852,-0.180975 -0.195086,-0.295275 -0.04657,-0.1143 -0.0702,-0.240594 -0.0702,-0.378883 0,-0.141817 0.02469,-0.269875 0.07408,-0.384175 0.04904,-0.1143 0.116417,-0.211314 0.202495,-0.291395 0.08608,-0.08008 0.187325,-0.141816 0.304094,-0.185208 0.116417,-0.04339 0.243417,-0.06491 0.379942,-0.06491 0.0568,0 0.116064,0.0053 0.1778,0.01623 0.06174,0.01094 0.121003,0.02752 0.177447,0.05009 0.0568,0.02258 0.110067,0.05045 0.160161,0.08396 0.05009,0.03316 0.09278,0.07338 0.127706,0.119945 z"
		/>
		<path id="pathCentroamericano_E" class="letter"
			d="m 48.15604,37.660255 c 0,-0.0381 -0.0056,-0.07514 -0.01623,-0.110067 -0.01094,-0.03493 -0.02787,-0.06597 -0.0515,-0.09243 -0.02328,-0.02681 -0.05292,-0.04798 -0.08855,-0.06385 -0.03598,-0.01588 -0.07796,-0.02399 -0.126294,-0.02399 -0.09031,0 -0.166511,0.02716 -0.228953,0.08149 -0.06244,0.05433 -0.09737,0.123825 -0.104069,0.208844 z m 0.300214,0.135114 v 0.04022 c 0,0.01305 -7.06e-4,0.02646 -0.0025,0.03986 h -0.913341 c 0.0035,0.04339 0.01482,0.0829 0.03387,0.118887 0.01905,0.03598 0.0448,0.06668 0.0762,0.09243 0.03175,0.02575 0.06773,0.04621 0.10795,0.06138 0.03986,0.01482 0.08149,0.02258 0.124884,0.02258 0.07479,0 0.138289,-0.01376 0.190147,-0.04127 0.05151,-0.02752 0.09419,-0.06562 0.127353,-0.113947 l 0.200378,0.160161 c -0.118534,0.160161 -0.290337,0.240242 -0.515409,0.240242 -0.09349,0 -0.179211,-0.01482 -0.257528,-0.04374 -0.07867,-0.02928 -0.146402,-0.07056 -0.203905,-0.123825 -0.0575,-0.05362 -0.102658,-0.118887 -0.135114,-0.196498 -0.03246,-0.07761 -0.04868,-0.165452 -0.04868,-0.263877 0,-0.09666 0.01623,-0.184856 0.04868,-0.263878 0.03246,-0.07937 0.07691,-0.146756 0.133703,-0.202847 0.0568,-0.05574 0.123825,-0.09913 0.201436,-0.130175 0.07726,-0.03069 0.161219,-0.04621 0.25153,-0.04621 0.08326,0 0.160514,0.01411 0.231423,0.04127 0.07055,0.02752 0.131939,0.06844 0.183797,0.122414 0.0515,0.05433 0.09208,0.122061 0.121355,0.202847 0.02893,0.08114 0.04375,0.175683 0.04375,0.283986"
		/>
		<path id="pathCentroamericano_N" class="letter"
			d="m 48.696213,37.180019 h 0.285397 v 0.192617 h 0.0049 c 0.02646,-0.05997 0.07267,-0.112889 0.138642,-0.15875 0.06597,-0.04586 0.143933,-0.06914 0.233891,-0.06914 0.07867,0 0.145698,0.01411 0.201437,0.04163 0.05574,0.02752 0.1016,0.06385 0.137583,0.108656 0.03598,0.04515 0.06244,0.09666 0.07867,0.155222 0.01693,0.05821 0.02505,0.118533 0.02505,0.179916 v 0.750712 h -0.300214 v -0.665339 c 0,-0.03528 -0.0025,-0.07197 -0.0074,-0.110067 -0.0049,-0.03845 -0.01588,-0.07303 -0.03245,-0.104069 -0.01658,-0.03069 -0.03951,-0.05644 -0.06879,-0.0762 -0.02928,-0.02011 -0.06809,-0.02999 -0.116064,-0.02999 -0.04868,0 -0.09031,0.0095 -0.125236,0.02858 -0.03528,0.0194 -0.06385,0.04375 -0.08643,0.07373 -0.02258,0.03034 -0.03951,0.06456 -0.05115,0.104069 -0.01164,0.03916 -0.01764,0.07867 -0.01764,0.118887 v 0.6604 h -0.300214 z"
		/>
		<path id="pathCentroamericano_T" class="letter"
			d="m 49.929736,37.420119 v -0.240242 h 0.209903 v -0.347486 h 0.295275 v 0.347486 h 0.300214 v 0.240242 h -0.300214 v 0.558094 c 0,0.05327 0.0095,0.09737 0.02893,0.132292 0.01905,0.03528 0.06209,0.05256 0.128763,0.05256 0.02011,0 0.04163,-0.0018 0.06491,-0.0063 0.02328,-0.0039 0.0441,-0.01023 0.06279,-0.0187 l 0.0099,0.235303 c -0.02681,0.0099 -0.05821,0.01764 -0.0949,0.02364 -0.03704,0.006 -0.07197,0.0088 -0.105481,0.0088 -0.07973,0 -0.144639,-0.01129 -0.195086,-0.03387 -0.04974,-0.02258 -0.08925,-0.05327 -0.118533,-0.09243 -0.02928,-0.03916 -0.04939,-0.08431 -0.05997,-0.135114 -0.01094,-0.0508 -0.01658,-0.105481 -0.01658,-0.164042 v -0.560211 z"
		/>
		<path id="pathCentroamericano_R" class="letter"
			d="m 50.902803,37.180019 h 0.287514 v 0.200025 h 0.0053 c 0.03316,-0.06985 0.08008,-0.126647 0.140052,-0.170039 0.05997,-0.04339 0.129823,-0.06526 0.209903,-0.06526 0.01164,0 0.02434,7.06e-4 0.03775,0.0014 0.01305,7.06e-4 0.02505,0.0032 0.03493,0.0063 v 0.275167 c -0.02011,-0.0049 -0.03739,-0.0085 -0.05151,-0.01023 -0.01411,-0.0014 -0.02752,-0.0021 -0.04092,-0.0021 -0.06844,0 -0.123473,0.01235 -0.1651,0.03739 -0.04198,0.02505 -0.07444,0.05503 -0.09772,0.08996 -0.02328,0.03492 -0.03916,0.07091 -0.04762,0.107597 -0.0081,0.03669 -0.01235,0.06597 -0.01235,0.08784 v 0.642762 h -0.300214 z"
		/>
		<path id="pathCentroamericano_O" class="letter"
			d="m 51.953375,37.775331 c 0,0.04692 0.0071,0.09349 0.02152,0.140053 0.01411,0.04692 0.03528,0.08855 0.0635,0.125236 0.02858,0.03669 0.06421,0.06668 0.107598,0.08996 0.04339,0.02328 0.09525,0.03493 0.155222,0.03493 0.05997,0 0.11183,-0.01164 0.154869,-0.03493 0.04339,-0.02328 0.07937,-0.05327 0.107598,-0.08996 0.02857,-0.03669 0.04974,-0.07832 0.0642,-0.125236 0.01376,-0.04657 0.02081,-0.09313 0.02081,-0.140053 0,-0.04657 -0.0071,-0.09278 -0.02081,-0.138642 -0.01446,-0.04586 -0.03563,-0.08749 -0.0642,-0.123825 -0.02822,-0.03669 -0.06421,-0.06668 -0.107598,-0.0889 -0.04304,-0.02258 -0.0949,-0.03387 -0.154869,-0.03387 -0.05997,0 -0.111831,0.01129 -0.155222,0.03387 -0.04339,0.02222 -0.07902,0.05221 -0.107598,0.0889 -0.02822,0.03634 -0.04939,0.07796 -0.0635,0.123825 -0.01446,0.04586 -0.02152,0.09208 -0.02152,0.138642 m -0.305153,0 c 0,-0.09525 0.01729,-0.181328 0.05115,-0.258939 0.03422,-0.07761 0.08043,-0.143933 0.138994,-0.198967 0.05821,-0.05503 0.127706,-0.09737 0.207787,-0.127352 0.08008,-0.02999 0.1651,-0.04516 0.255058,-0.04516 0.08996,0 0.174978,0.01517 0.255058,0.04516 0.08008,0.02999 0.149225,0.07232 0.207786,0.127352 0.05821,0.05503 0.104423,0.121356 0.138642,0.198967 0.03422,0.07761 0.05151,0.163689 0.05151,0.258939 0,0.09525 -0.01729,0.181681 -0.05151,0.259997 -0.03422,0.07867 -0.08043,0.145697 -0.138642,0.201436 -0.05856,0.05609 -0.127705,0.09984 -0.207786,0.131586 -0.08008,0.03175 -0.1651,0.04727 -0.255058,0.04727 -0.08996,0 -0.174978,-0.01552 -0.255058,-0.04727 -0.08008,-0.03175 -0.149578,-0.07549 -0.207787,-0.131586 -0.05856,-0.05574 -0.104775,-0.122766 -0.138994,-0.201436 -0.03387,-0.07832 -0.05115,-0.164747 -0.05115,-0.259997"
		/>
		<path id="pathCentroamericano_A" class="letter"
			d="m 53.934645,37.832834 h -0.06738 c -0.04868,0 -0.09948,0.0021 -0.152752,0.0064 -0.05327,0.0039 -0.102659,0.01341 -0.147461,0.02752 -0.04516,0.01411 -0.08255,0.03422 -0.112537,0.05997 -0.02999,0.02575 -0.04516,0.06103 -0.04516,0.106186 0,0.02857 0.0063,0.05221 0.0187,0.07161 0.0127,0.01905 0.02893,0.03457 0.04904,0.04586 0.01976,0.01199 0.04233,0.02046 0.06738,0.0254 0.02505,0.0049 0.05009,0.0074 0.07479,0.0074 0.103716,0 0.182033,-0.02752 0.235302,-0.08255 0.05327,-0.05503 0.08008,-0.130175 0.08008,-0.225072 z m 0.0049,0.395464 h -0.0074 c -0.02999,0.05327 -0.07832,0.09701 -0.144992,0.131233 -0.06668,0.03422 -0.142875,0.05115 -0.227895,0.05115 -0.04833,0 -0.09878,-0.006 -0.151341,-0.0187 -0.05256,-0.01235 -0.100895,-0.03351 -0.144992,-0.06244 -0.0441,-0.02928 -0.08079,-0.06773 -0.110067,-0.115005 -0.02928,-0.04762 -0.04374,-0.106539 -0.04374,-0.176389 0,-0.09031 0.0254,-0.161925 0.0762,-0.215195 0.05115,-0.05327 0.116417,-0.09419 0.196497,-0.122414 0.08008,-0.02857 0.168981,-0.04727 0.266347,-0.05644 0.09737,-0.0092 0.19297,-0.01376 0.286456,-0.01376 v -0.02999 c 0,-0.07514 -0.02716,-0.130527 -0.08114,-0.166511 -0.05433,-0.03563 -0.118886,-0.05398 -0.194028,-0.05398 -0.0635,0 -0.124177,0.01341 -0.182386,0.04022 -0.05856,0.02681 -0.106891,0.05927 -0.145344,0.09737 l -0.15487,-0.182386 c 0.06809,-0.06315 0.147109,-0.111125 0.236009,-0.142523 0.08925,-0.03175 0.179916,-0.04763 0.271639,-0.04763 0.106538,0 0.194733,0.01517 0.263877,0.04516 0.06914,0.02999 0.123825,0.06914 0.163689,0.117475 0.04022,0.04833 0.06809,0.102658 0.08396,0.16263 0.01588,0.05997 0.02399,0.120298 0.02399,0.179917 v 0.730603 h -0.280458 z"
		/>
		<path id="pathCentroamericano_M" class="letter"
			d="m 55.95331,37.144882 c 0.07832,0 0.145697,0.01411 0.201436,0.04127 0.05574,0.02752 0.1016,0.06385 0.137583,0.109008 0.03598,0.0448 0.06209,0.09666 0.07902,0.15487 0.01658,0.05856 0.02469,0.118533 0.02469,0.180269 v 0.750359 h -0.299861 v -0.665339 c 0,-0.03493 -0.0028,-0.07161 -0.0078,-0.110067 -0.0049,-0.03845 -0.01588,-0.07303 -0.03246,-0.103717 -0.01658,-0.03104 -0.03951,-0.05644 -0.06879,-0.07655 -0.02928,-0.01976 -0.06809,-0.02999 -0.116064,-0.02999 -0.04692,0 -0.08678,0.01023 -0.120297,0.02999 -0.03316,0.02011 -0.06103,0.04586 -0.08255,0.07761 -0.02187,0.03175 -0.03775,0.06738 -0.04763,0.106186 -0.0099,0.03951 -0.01482,0.07832 -0.01482,0.116769 v 0.655109 H 55.30561 v -0.725312 c 0,-0.07514 -0.01799,-0.13723 -0.05398,-0.186619 -0.03563,-0.04904 -0.09208,-0.07373 -0.168628,-0.07373 -0.04516,0 -0.08431,0.0099 -0.117828,0.02893 -0.03351,0.01905 -0.06032,0.04375 -0.08114,0.07373 -0.02081,0.02999 -0.03669,0.06456 -0.04763,0.103716 -0.01094,0.03916 -0.01623,0.07902 -0.01623,0.118887 v 0.6604 h -0.3002 V 37.18016 h 0.285397 v 0.192616 h 0.0046 c 0.01341,-0.02999 0.0314,-0.05856 0.05398,-0.08537 0.02258,-0.02646 0.04939,-0.0508 0.08008,-0.07232 0.03104,-0.02187 0.06632,-0.03881 0.106186,-0.05151 0.04022,-0.01235 0.08431,-0.0187 0.132644,-0.0187 0.09349,0 0.171098,0.02117 0.232834,0.06244 0.06174,0.04198 0.109008,0.09701 0.142522,0.165452 0.03986,-0.07373 0.09349,-0.129822 0.160161,-0.16898 0.06632,-0.03916 0.144992,-0.05891 0.23495,-0.05891"
		/>
		<path id="pathCentroamericano_E2" class="letter"
			d="m 57.54201,37.660255 c 0,-0.0381 -0.0056,-0.07514 -0.01623,-0.110067 -0.01094,-0.03493 -0.02787,-0.06597 -0.0515,-0.09243 -0.02328,-0.02681 -0.05292,-0.04798 -0.08855,-0.06385 -0.03598,-0.01588 -0.07832,-0.02399 -0.126647,-0.02399 -0.08996,0 -0.166158,0.02716 -0.2286,0.08149 -0.06279,0.05433 -0.09737,0.123825 -0.104069,0.208844 z m 0.300214,0.135114 v 0.04022 c 0,0.01305 -0.0011,0.02646 -0.0028,0.03986 h -0.912989 c 0.0035,0.04339 0.01446,0.0829 0.03387,0.118887 0.01905,0.03598 0.04445,0.06668 0.0762,0.09243 0.03175,0.02575 0.06773,0.04621 0.107598,0.06138 0.04022,0.01482 0.08184,0.02258 0.125236,0.02258 0.07479,0 0.138289,-0.01376 0.190147,-0.04127 0.05151,-0.02752 0.09419,-0.06562 0.127353,-0.113947 l 0.200378,0.160161 c -0.118534,0.160161 -0.290337,0.240242 -0.515409,0.240242 -0.09349,0 -0.179211,-0.01482 -0.25788,-0.04374 -0.07832,-0.02928 -0.14605,-0.07056 -0.203906,-0.123825 -0.05715,-0.05362 -0.102305,-0.118887 -0.134761,-0.196498 -0.03281,-0.07761 -0.04904,-0.165452 -0.04904,-0.263877 0,-0.09666 0.01623,-0.184856 0.04904,-0.263878 0.03246,-0.07937 0.07691,-0.146756 0.133703,-0.202847 0.0568,-0.05574 0.123825,-0.09913 0.201436,-0.130175 0.07726,-0.03069 0.161219,-0.04621 0.25153,-0.04621 0.08326,0 0.160162,0.01411 0.231423,0.04127 0.07055,0.02752 0.131939,0.06844 0.183444,0.122414 0.05186,0.05433 0.09243,0.122061 0.121708,0.202847 0.02893,0.08114 0.04375,0.175683 0.04375,0.283986"
		/>
		<path id="pathCentroamericano_R2" class="letter"
			d="m 58.082218,37.180019 h 0.287514 v 0.200025 h 0.0053 c 0.03316,-0.06985 0.08008,-0.126647 0.140052,-0.170039 0.05997,-0.04339 0.130175,-0.06526 0.209903,-0.06526 0.01199,0 0.02434,7.06e-4 0.03775,0.0014 0.01341,7.06e-4 0.02505,0.0032 0.03493,0.0063 v 0.275167 c -0.01976,-0.0049 -0.03704,-0.0085 -0.05115,-0.01023 -0.01411,-0.0014 -0.02787,-0.0021 -0.04127,-0.0021 -0.06844,0 -0.123473,0.01235 -0.1651,0.03739 -0.04163,0.02505 -0.07444,0.05503 -0.09772,0.08996 -0.02328,0.03492 -0.03916,0.07091 -0.04763,0.107597 -0.0081,0.03669 -0.01235,0.06597 -0.01235,0.08784 v 0.642762 h -0.300214 z"
		/>
		<path id="pathCentroamericano_I" class="letter"
			d="m 58.947829,37.179948 h 0.300214 v 1.200856 h -0.300214 z m -0.04269,-0.407811 c 0,-0.04833 0.01799,-0.09031 0.05397,-0.126295 0.03598,-0.03598 0.08149,-0.05362 0.136172,-0.05362 0.05539,0 0.1016,0.01693 0.138995,0.05115 0.03775,0.03422 0.05644,0.07726 0.05644,0.128764 0,0.05186 -0.0187,0.09454 -0.05644,0.128764 -0.03739,0.03422 -0.08361,0.05151 -0.138995,0.05151 -0.05468,0 -0.100189,-0.01799 -0.136172,-0.05398 -0.03598,-0.03563 -0.05397,-0.07796 -0.05397,-0.126294"
		/>
		<path id="pathCentroamericano_C2" class="letter"
			d="m 60.383705,37.512794 c -0.02328,-0.03351 -0.05856,-0.06138 -0.105128,-0.08396 -0.04657,-0.02258 -0.09419,-0.03351 -0.142522,-0.03351 -0.05503,0 -0.103364,0.01094 -0.144992,0.03351 -0.04163,0.02258 -0.07655,0.05221 -0.104069,0.0889 -0.02716,0.03669 -0.04763,0.07796 -0.06103,0.123825 -0.0134,0.04586 -0.02011,0.09207 -0.02011,0.138642 0,0.04692 0.0071,0.09313 0.02117,0.138994 0.01411,0.04586 0.03528,0.08714 0.06385,0.123825 0.02858,0.03669 0.06385,0.06632 0.106539,0.0889 0.04233,0.02258 0.09208,0.03387 0.148873,0.03387 0.04657,0 0.09313,-0.0092 0.140052,-0.02787 0.04657,-0.01834 0.08396,-0.0448 0.112184,-0.08008 l 0.18803,0.190147 c -0.05009,0.05362 -0.113947,0.0949 -0.191558,0.124178 -0.07761,0.02893 -0.16122,0.04374 -0.251531,0.04374 -0.08819,0 -0.172155,-0.01411 -0.251177,-0.04269 -0.07937,-0.02857 -0.14852,-0.06985 -0.207787,-0.125236 -0.05927,-0.05468 -0.105833,-0.121708 -0.140052,-0.200025 -0.03422,-0.07832 -0.05115,-0.16757 -0.05115,-0.267758 0,-0.09666 0.01693,-0.18415 0.05115,-0.262467 0.03422,-0.07832 0.08043,-0.144992 0.138994,-0.200378 0.05821,-0.05468 0.126295,-0.09737 0.203553,-0.127353 0.07761,-0.02999 0.160514,-0.04516 0.249061,-0.04516 0.08855,0 0.173919,0.01658 0.256469,0.05009 0.08255,0.03351 0.147814,0.07937 0.196498,0.137584 z"
		/>
		<path id="pathCentroamericano_A2" class="letter"
			d="m 61.474424,37.832834 h -0.06738 c -0.04868,0 -0.09948,0.0021 -0.152752,0.0064 -0.05327,0.0039 -0.102659,0.01341 -0.147461,0.02752 -0.04516,0.01411 -0.08255,0.03422 -0.112537,0.05997 -0.02999,0.02575 -0.04516,0.06103 -0.04516,0.106186 0,0.02857 0.0064,0.05221 0.0187,0.07161 0.0127,0.01905 0.02893,0.03457 0.04904,0.04586 0.01976,0.01199 0.04233,0.02046 0.06738,0.0254 0.02505,0.0049 0.05009,0.0074 0.07479,0.0074 0.103364,0 0.182033,-0.02752 0.235302,-0.08255 0.05327,-0.05503 0.08008,-0.130175 0.08008,-0.225072 z m 0.0049,0.395464 h -0.0074 c -0.02999,0.05327 -0.07832,0.09701 -0.144992,0.131233 -0.06667,0.03422 -0.142875,0.05115 -0.227895,0.05115 -0.04833,0 -0.09878,-0.006 -0.151341,-0.0187 -0.05256,-0.01235 -0.100895,-0.03351 -0.144992,-0.06244 -0.0441,-0.02928 -0.08079,-0.06773 -0.110067,-0.115005 -0.02928,-0.04762 -0.04374,-0.106539 -0.04374,-0.176389 0,-0.09031 0.0254,-0.161925 0.0762,-0.215195 0.05115,-0.05327 0.116417,-0.09419 0.196497,-0.122414 0.08008,-0.02857 0.168981,-0.04727 0.266347,-0.05644 0.09737,-0.0092 0.19297,-0.01376 0.286456,-0.01376 v -0.02999 c 0,-0.07514 -0.02716,-0.130527 -0.08114,-0.166511 -0.05433,-0.03563 -0.118886,-0.05398 -0.194028,-0.05398 -0.0635,0 -0.124177,0.01341 -0.182386,0.04022 -0.05856,0.02681 -0.106891,0.05927 -0.145344,0.09737 l -0.15487,-0.182386 c 0.06809,-0.06315 0.147109,-0.111125 0.236009,-0.142523 0.08925,-0.03175 0.179916,-0.04763 0.271639,-0.04763 0.106538,0 0.194733,0.01517 0.263877,0.04516 0.06914,0.02999 0.123825,0.06914 0.163689,0.117475 0.04022,0.04833 0.06809,0.102658 0.08396,0.16263 0.01588,0.05997 0.02399,0.120298 0.02399,0.179917 v 0.730603 h -0.280458 z"
		/>
		<path id="pathCentroamericano_N" class="letter"
			d="m 62.059752,37.180019 h 0.285397 v 0.192617 h 0.0046 c 0.02681,-0.05997 0.07302,-0.112889 0.138995,-0.15875 0.06597,-0.04586 0.143933,-0.06914 0.233891,-0.06914 0.07867,0 0.145698,0.01411 0.201437,0.04163 0.05574,0.02752 0.1016,0.06385 0.137583,0.108656 0.03563,0.04515 0.06209,0.09666 0.07867,0.155222 0.01693,0.05821 0.02505,0.118533 0.02505,0.179916 v 0.750712 h -0.300214 v -0.665339 c 0,-0.03528 -0.0025,-0.07197 -0.0074,-0.110067 -0.0049,-0.03845 -0.01588,-0.07303 -0.03245,-0.104069 -0.01658,-0.03069 -0.03951,-0.05644 -0.06879,-0.0762 -0.02928,-0.02011 -0.06809,-0.02999 -0.116064,-0.02999 -0.04868,0 -0.09031,0.0095 -0.125236,0.02858 -0.03528,0.0194 -0.06385,0.04375 -0.08643,0.07373 -0.02258,0.03034 -0.03951,0.06456 -0.05115,0.104069 -0.012,0.03916 -0.01764,0.07867 -0.01764,0.118887 v 0.6604 h -0.300214 z"
		/>
		<path id="pathCentroamericano_O" class="letter"
			d="m 63.700804,37.775331 c 0,0.04692 0.0071,0.09349 0.02152,0.140053 0.01411,0.04692 0.03528,0.08855 0.0635,0.125236 0.02857,0.03669 0.06421,0.06668 0.107598,0.08996 0.04339,0.02328 0.0949,0.03493 0.155222,0.03493 0.05997,0 0.111478,-0.01164 0.154869,-0.03493 0.04339,-0.02328 0.07937,-0.05327 0.107598,-0.08996 0.02858,-0.03669 0.04974,-0.07832 0.06385,-0.125236 0.01411,-0.04657 0.02117,-0.09313 0.02117,-0.140053 0,-0.04657 -0.0071,-0.09278 -0.02117,-0.138642 -0.01411,-0.04586 -0.03528,-0.08749 -0.06385,-0.123825 -0.02822,-0.03669 -0.06421,-0.06668 -0.107598,-0.0889 -0.04339,-0.02258 -0.0949,-0.03387 -0.154869,-0.03387 -0.06032,0 -0.111831,0.01129 -0.155222,0.03387 -0.04339,0.02222 -0.07902,0.05221 -0.107598,0.0889 -0.02822,0.03634 -0.04939,0.07796 -0.0635,0.123825 -0.01446,0.04586 -0.02152,0.09208 -0.02152,0.138642 m -0.305153,0 c 0,-0.09525 0.01729,-0.181328 0.05115,-0.258939 0.03422,-0.07761 0.08043,-0.143933 0.138994,-0.198967 0.05821,-0.05503 0.127706,-0.09737 0.207434,-0.127352 0.08008,-0.02999 0.1651,-0.04516 0.255411,-0.04516 0.08996,0 0.174978,0.01517 0.255058,0.04516 0.08008,0.02999 0.149225,0.07232 0.207786,0.127352 0.05821,0.05503 0.104423,0.121356 0.138642,0.198967 0.03422,0.07761 0.05115,0.163689 0.05115,0.258939 0,0.09525 -0.01693,0.181681 -0.05115,0.259997 -0.03422,0.07867 -0.08043,0.145697 -0.138642,0.201436 -0.05856,0.05609 -0.127705,0.09984 -0.207786,0.131586 -0.08008,0.03175 -0.1651,0.04727 -0.255058,0.04727 -0.09031,0 -0.175331,-0.01552 -0.255411,-0.04727 -0.07973,-0.03175 -0.149225,-0.07549 -0.207434,-0.131586 -0.05856,-0.05574 -0.104775,-0.122766 -0.138994,-0.201436 -0.03387,-0.07832 -0.05115,-0.164747 -0.05115,-0.259997"
		/>
    </g>
    <g id="gDe">
		<path id="pathDe_D" class="letter"
			d="m 45.882105,40.723812 c 0,0.04657 0.0071,0.09349 0.02117,0.140053 0.01411,0.04657 0.03528,0.08819 0.06385,0.124883 0.02822,0.03669 0.06421,0.06667 0.107598,0.09031 0.04304,0.02328 0.09419,0.03493 0.152752,0.03493 0.05503,0 0.10407,-0.01129 0.147462,-0.03387 0.04339,-0.02258 0.08043,-0.05221 0.111125,-0.0889 0.03104,-0.03669 0.05433,-0.07761 0.0702,-0.123825 0.01588,-0.04586 0.02364,-0.09208 0.02364,-0.138642 0,-0.04692 -0.0078,-0.09349 -0.02364,-0.140053 -0.01588,-0.04692 -0.03916,-0.08855 -0.0702,-0.125236 -0.03069,-0.03669 -0.06773,-0.06667 -0.111125,-0.08996 -0.04339,-0.02364 -0.09243,-0.03492 -0.147462,-0.03492 -0.05856,0 -0.109713,0.01094 -0.152752,0.03351 -0.04339,0.02258 -0.07937,0.05221 -0.107598,0.0889 -0.02857,0.03669 -0.04974,0.07796 -0.06385,0.123825 -0.01411,0.04586 -0.02117,0.09208 -0.02117,0.138994 m 0.988131,0.605367 h -0.285045 v -0.18027 h -0.0053 c -0.04163,0.0702 -0.09948,0.123472 -0.173919,0.160161 -0.07408,0.03669 -0.153811,0.05503 -0.238831,0.05503 -0.09172,0 -0.173919,-0.01693 -0.246238,-0.05151 -0.07267,-0.03387 -0.134409,-0.07973 -0.185209,-0.13723 -0.05115,-0.0575 -0.08996,-0.125237 -0.117475,-0.202848 -0.02752,-0.07761 -0.04127,-0.160514 -0.04127,-0.248708 0,-0.08855 0.01411,-0.171097 0.04233,-0.24765 0.02822,-0.07655 0.06844,-0.143581 0.119944,-0.200378 0.05186,-0.05644 0.113594,-0.101247 0.185208,-0.133703 0.07197,-0.03245 0.150284,-0.04904 0.235303,-0.04904 0.05503,0 0.10407,0.0064 0.147814,0.01905 0.04304,0.01235 0.08114,0.02787 0.113594,0.04621 0.03246,0.01834 0.06032,0.03845 0.08361,0.05997 0.02364,0.02187 0.04269,0.04269 0.05785,0.0628 h 0.0074 V 39.43757 h 0.300214 z"
		/>
		<path id="pathDe_E" class="letter"
			d="m 48.03098,40.60856 c 0,-0.0381 -0.0056,-0.07514 -0.01623,-0.110067 -0.01094,-0.03493 -0.02787,-0.06597 -0.0515,-0.09243 -0.02328,-0.02681 -0.05292,-0.04798 -0.08855,-0.06385 -0.03598,-0.01588 -0.07796,-0.02399 -0.126647,-0.02399 -0.08996,0 -0.166158,0.02716 -0.2286,0.08149 -0.06244,0.05433 -0.09737,0.123825 -0.104069,0.208844 z m 0.300214,0.135114 v 0.04022 c 0,0.01305 -7.06e-4,0.02646 -0.0025,0.03986 h -0.913341 c 0.0035,0.04339 0.01446,0.0829 0.03387,0.118887 0.01905,0.03563 0.0448,0.06667 0.0762,0.09243 0.03175,0.02611 0.06773,0.04621 0.107598,0.06138 0.04022,0.01482 0.08184,0.02258 0.125236,0.02258 0.07479,0 0.138289,-0.01376 0.190147,-0.04127 0.05151,-0.02752 0.09419,-0.06562 0.127353,-0.113947 l 0.200378,0.160161 c -0.118534,0.160161 -0.290337,0.240242 -0.515409,0.240242 -0.09349,0 -0.179211,-0.01482 -0.25788,-0.04374 -0.07832,-0.02928 -0.14605,-0.07056 -0.203906,-0.123825 -0.05715,-0.05362 -0.102305,-0.118887 -0.134761,-0.196498 -0.03281,-0.07761 -0.04904,-0.165452 -0.04904,-0.263877 0,-0.09666 0.01623,-0.184856 0.04904,-0.263878 0.03246,-0.07937 0.07691,-0.146756 0.133703,-0.202847 0.0568,-0.05574 0.123825,-0.09913 0.201436,-0.130175 0.07726,-0.03069 0.161219,-0.04621 0.25153,-0.04621 0.08326,0 0.160514,0.01411 0.23107,0.04127 0.07091,0.02752 0.132292,0.06844 0.183797,0.122766 0.05186,0.05433 0.09243,0.121709 0.121708,0.202848 0.02893,0.08079 0.04375,0.17533 0.04375,0.283633"
		/>
    </g>
    <g id="gIntegracion">
		<path id="pathIntegracion_I" class="letter"
			d="m 49.161774,39.558023 h 0.315383 v 1.771297 h -0.315383 z"
		/>
		<path id="pathIntegracion_N" class="letter"
			d="m 49.801924,40.128323 h 0.285397 v 0.192617 h 0.0049 c 0.02646,-0.05997 0.07267,-0.112889 0.138642,-0.15875 0.06597,-0.04586 0.143933,-0.06915 0.233891,-0.06915 0.07867,0 0.145698,0.01411 0.201437,0.04163 0.05574,0.02752 0.1016,0.06385 0.137583,0.108656 0.03598,0.04515 0.06244,0.09666 0.07867,0.155222 0.01693,0.05821 0.02505,0.118533 0.02505,0.179916 v 0.750712 H 50.607316 V 40.66384 c 0,-0.03528 -0.0025,-0.07197 -0.0074,-0.110067 -0.0049,-0.03845 -0.01588,-0.07303 -0.03245,-0.104069 -0.01658,-0.03069 -0.03951,-0.05644 -0.06879,-0.0762 -0.02928,-0.02011 -0.06773,-0.02999 -0.116064,-0.02999 -0.04868,0 -0.09031,0.0095 -0.125236,0.02858 -0.03528,0.0194 -0.06385,0.04375 -0.08643,0.07373 -0.02258,0.03034 -0.03951,0.06456 -0.05115,0.104069 -0.01164,0.03916 -0.01764,0.07867 -0.01764,0.118887 v 0.6604 h -0.300214 z"
		/>
		<path id="pathIntegracion_T" class="letter"
			d="m 51.035271,40.368424 v -0.240242 h 0.209903 v -0.347839 h 0.295275 v 0.347839 h 0.300214 v 0.240242 h -0.300214 v 0.558094 c 0,0.05327 0.0095,0.09737 0.02893,0.132292 0.01905,0.03528 0.06209,0.05256 0.128763,0.05256 0.02011,0 0.04163,-0.0021 0.06491,-0.0063 0.02328,-0.0039 0.0441,-0.01023 0.06279,-0.0187 l 0.0099,0.235303 c -0.02681,0.0099 -0.05821,0.01764 -0.0949,0.02364 -0.03669,0.006 -0.07197,0.0088 -0.105128,0.0088 -0.08008,0 -0.144992,-0.01129 -0.195439,-0.03387 -0.04974,-0.02258 -0.08925,-0.05327 -0.118533,-0.09243 -0.02928,-0.03916 -0.04939,-0.08431 -0.05997,-0.135114 -0.01094,-0.0508 -0.01658,-0.105481 -0.01658,-0.164042 v -0.560211 z"
		/>
		<path id="pathIntegracion_E" class="letter"
			d="m 52.853946,40.60856 c 0,-0.0381 -0.0053,-0.07514 -0.01623,-0.110067 -0.01094,-0.03493 -0.02787,-0.06597 -0.05151,-0.09243 -0.02328,-0.02681 -0.05292,-0.04798 -0.08855,-0.06385 -0.03598,-0.01588 -0.07796,-0.02399 -0.126294,-0.02399 -0.09031,0 -0.166511,0.02716 -0.228953,0.08149 -0.06244,0.05433 -0.09737,0.123825 -0.103716,0.208844 z m 0.300214,0.135114 v 0.04022 c 0,0.01305 -7.06e-4,0.02646 -0.0025,0.03986 h -0.912988 c 0.0032,0.04339 0.01446,0.0829 0.03351,0.118887 0.0194,0.03563 0.0448,0.06667 0.0762,0.09243 0.03175,0.02611 0.06773,0.04621 0.10795,0.06138 0.03986,0.01482 0.08149,0.02258 0.124884,0.02258 0.07514,0 0.138289,-0.01376 0.190147,-0.04127 0.05151,-0.02752 0.09419,-0.06562 0.127353,-0.113947 l 0.200378,0.160161 c -0.118534,0.160161 -0.290337,0.240242 -0.515409,0.240242 -0.09349,0 -0.179211,-0.01482 -0.257528,-0.04374 -0.07867,-0.02928 -0.146402,-0.07056 -0.203905,-0.123825 -0.0575,-0.05362 -0.102658,-0.118887 -0.135114,-0.196498 -0.03246,-0.07761 -0.04868,-0.165452 -0.04868,-0.263877 0,-0.09666 0.01623,-0.184856 0.04868,-0.263878 0.03246,-0.07937 0.07691,-0.146756 0.133703,-0.202847 0.0568,-0.05574 0.123825,-0.09913 0.201436,-0.130175 0.07761,-0.03069 0.161219,-0.04621 0.25153,-0.04621 0.08326,0 0.160514,0.01411 0.231423,0.04127 0.07056,0.02752 0.131939,0.06844 0.183797,0.122766 0.0515,0.05433 0.09208,0.121709 0.121355,0.202848 0.02893,0.08079 0.04374,0.17533 0.04374,0.283633"
		/>
		<path id="pathIntegracion_G" class="letter"
			d="m 53.974615,40.338473 c -0.05503,0 -0.103717,0.0099 -0.146403,0.02999 -0.04269,0.02011 -0.07832,0.04692 -0.107597,0.08079 -0.02893,0.03422 -0.05151,0.07444 -0.06738,0.121003 -0.01588,0.04657 -0.02399,0.09666 -0.02399,0.149578 0,0.04833 0.0081,0.0949 0.02399,0.1397 0.01588,0.0448 0.03845,0.08537 0.06738,0.121003 0.02928,0.03563 0.06491,0.06421 0.107597,0.08608 0.04269,0.02152 0.09031,0.0321 0.143934,0.0321 0.05503,0 0.104775,-0.01023 0.148872,-0.03104 0.0441,-0.02081 0.08149,-0.04868 0.112536,-0.08326 0.03069,-0.03493 0.05468,-0.07549 0.07126,-0.121003 0.01658,-0.04586 0.02505,-0.09349 0.02505,-0.14358 0,-0.05151 -0.0085,-0.100542 -0.02505,-0.147109 -0.01658,-0.04621 -0.04057,-0.08714 -0.07126,-0.122061 -0.03104,-0.03493 -0.06809,-0.06209 -0.111478,-0.0822 -0.04339,-0.02011 -0.09243,-0.02999 -0.147461,-0.02999 m 0.640292,-0.210256 v 1.093259 c 0,0.108303 -0.01341,0.206375 -0.03986,0.293864 -0.02681,0.08749 -0.06809,0.161925 -0.123825,0.222602 -0.05609,0.06103 -0.126295,0.10795 -0.211667,0.141464 -0.08502,0.03351 -0.185561,0.05009 -0.30233,0.05009 -0.04868,0 -0.09984,-0.0042 -0.153812,-0.01235 -0.05433,-0.0085 -0.10795,-0.02081 -0.160161,-0.03775 -0.05292,-0.01658 -0.103011,-0.03739 -0.151341,-0.06244 -0.04833,-0.02505 -0.09208,-0.05362 -0.130175,-0.08502 l 0.172508,-0.232833 c 0.05821,0.05503 0.124178,0.09737 0.197556,0.126294 0.07338,0.02928 0.147813,0.04375 0.222602,0.04375 0.07161,0 0.132292,-0.01023 0.181681,-0.0314 0.04904,-0.02081 0.08819,-0.04974 0.117475,-0.08643 0.02928,-0.03704 0.04974,-0.08043 0.06244,-0.130528 0.0127,-0.05045 0.0187,-0.10548 0.0187,-0.165805 v -0.08784 h -0.0049 c -0.04339,0.05891 -0.09878,0.104069 -0.166158,0.135114 -0.06773,0.03104 -0.143228,0.04692 -0.226484,0.04692 -0.08996,0 -0.171803,-0.01693 -0.24518,-0.05009 -0.07338,-0.03351 -0.135467,-0.07832 -0.186267,-0.135114 -0.0508,-0.0568 -0.09066,-0.122767 -0.118886,-0.198967 -0.02858,-0.07585 -0.04269,-0.15628 -0.04269,-0.2413 0,-0.08678 0.01376,-0.168275 0.04127,-0.24518 0.02752,-0.07655 0.06668,-0.143228 0.117475,-0.200025 0.0508,-0.0568 0.112536,-0.1016 0.185208,-0.135114 0.07267,-0.03351 0.153811,-0.05009 0.244122,-0.05009 0.08467,0 0.164042,0.01729 0.23742,0.05256 0.07338,0.03493 0.131939,0.08925 0.17533,0.162631 h 0.0049 v -0.18027 z"
		/>
		<path id="pathIntegracion_R" class="letter"
			d="m 54.925104,40.128323 h 0.287867 v 0.200025 h 0.0049 c 0.03316,-0.06985 0.08008,-0.126647 0.140052,-0.170039 0.05997,-0.04339 0.130175,-0.06526 0.210256,-0.06526 0.01164,0 0.02399,7.06e-4 0.03739,0.0014 0.01341,0.0011 0.02505,0.0032 0.03493,0.0063 v 0.275167 c -0.01976,-0.0049 -0.03704,-0.0081 -0.05115,-0.0099 -0.01411,-0.0018 -0.02787,-0.0025 -0.04127,-0.0025 -0.06844,0 -0.123473,0.01235 -0.1651,0.03739 -0.04163,0.02505 -0.07444,0.05503 -0.09772,0.08996 -0.02328,0.03492 -0.03916,0.07091 -0.04727,0.107597 -0.0085,0.03669 -0.0127,0.06597 -0.0127,0.08784 v 0.642762 h -0.300214 z"
		/>
		<path id="pathIntegracion_A" class="letter"
			d="m 56.49366,40.781174 h -0.06738 c -0.04868,0 -0.09948,0.0021 -0.152752,0.0063 -0.05327,0.0042 -0.102659,0.01341 -0.147461,0.02752 -0.04516,0.01411 -0.08255,0.03422 -0.112537,0.05997 -0.02999,0.0261 -0.04516,0.06103 -0.04516,0.106186 0,0.02858 0.0064,0.05221 0.0187,0.07161 0.0127,0.01905 0.02893,0.03457 0.04904,0.04586 0.01976,0.01199 0.04233,0.02046 0.06738,0.0254 0.02505,0.0049 0.05009,0.0074 0.07479,0.0074 0.103716,0 0.182033,-0.02752 0.235302,-0.08255 0.05362,-0.05503 0.08008,-0.130175 0.08008,-0.225072 z m 0.0053,0.395464 h -0.0078 c -0.02999,0.05327 -0.07832,0.09701 -0.144992,0.131233 -0.06667,0.03422 -0.142522,0.05115 -0.227542,0.05115 -0.04868,0 -0.09878,-0.006 -0.151694,-0.0187 -0.05256,-0.01235 -0.100895,-0.03351 -0.144992,-0.06244 -0.0441,-0.02928 -0.08079,-0.06773 -0.110067,-0.115005 -0.02928,-0.04763 -0.04374,-0.106539 -0.04374,-0.176389 0,-0.09031 0.0254,-0.161925 0.0762,-0.215195 0.05115,-0.05327 0.116417,-0.09419 0.196497,-0.122414 0.08008,-0.02858 0.168981,-0.04727 0.266347,-0.05644 0.09772,-0.0095 0.19297,-0.01376 0.286456,-0.01376 v -0.02999 c 0,-0.07514 -0.02716,-0.130527 -0.08114,-0.166511 -0.05433,-0.03563 -0.118886,-0.05362 -0.194028,-0.05362 -0.06315,0 -0.124177,0.01305 -0.182386,0.03986 -0.05856,0.02681 -0.106891,0.05927 -0.145344,0.09737 l -0.15487,-0.182386 c 0.06809,-0.0635 0.147109,-0.111125 0.236361,-0.142523 0.0889,-0.03175 0.179564,-0.04762 0.271287,-0.04762 0.106891,0 0.194733,0.01517 0.263877,0.04516 0.06914,0.02999 0.123825,0.06914 0.163689,0.117475 0.04022,0.04833 0.06809,0.102658 0.08396,0.16263 0.01588,0.05997 0.02399,0.120298 0.02399,0.179917 v 0.730603 h -0.280105 z"
		/>
		<path id="pathIntegracion_C" class="letter"
			d="m 57.899621,40.461099 c -0.02328,-0.03351 -0.05856,-0.06138 -0.105128,-0.08396 -0.04657,-0.02258 -0.09419,-0.03351 -0.142522,-0.03351 -0.05503,0 -0.103364,0.01094 -0.144992,0.03351 -0.04163,0.02258 -0.07655,0.05221 -0.104069,0.0889 -0.02716,0.03669 -0.04762,0.07796 -0.06138,0.123825 -0.01341,0.04586 -0.01976,0.09208 -0.01976,0.138642 0,0.04692 0.0071,0.09313 0.02117,0.138994 0.01411,0.04586 0.03528,0.08714 0.06385,0.123825 0.02822,0.03669 0.06385,0.06632 0.106187,0.0889 0.04269,0.02258 0.09243,0.03387 0.148872,0.03387 0.04657,0 0.09349,-0.0092 0.140405,-0.02787 0.04657,-0.01834 0.08396,-0.0448 0.112184,-0.08008 l 0.187677,0.190147 c -0.04974,0.05362 -0.113594,0.0949 -0.191205,0.124178 -0.07761,0.02893 -0.16122,0.04374 -0.251531,0.04374 -0.08819,0 -0.172155,-0.01411 -0.251177,-0.04269 -0.07938,-0.02822 -0.14852,-0.06985 -0.207787,-0.125236 -0.05927,-0.05468 -0.105833,-0.121708 -0.140052,-0.200025 -0.03422,-0.07832 -0.05115,-0.16757 -0.05115,-0.267758 0,-0.09666 0.01693,-0.18415 0.05115,-0.262467 0.03422,-0.07832 0.08043,-0.144992 0.138994,-0.200025 0.05821,-0.05503 0.126295,-0.09772 0.203553,-0.127706 0.07761,-0.02999 0.160514,-0.04515 0.249061,-0.04515 0.08855,0 0.173919,0.01658 0.256117,0.05009 0.0829,0.03351 0.148166,0.07937 0.19685,0.137584 z"
		/>
		<path id="pathIntegracion_I2" class="letter"
			d="m 58.254974,40.128465 h 0.300213 v 1.200855 h -0.300213 z m -0.04269,-0.407812 c 0,-0.04833 0.01799,-0.09066 0.05398,-0.126294 0.03563,-0.03598 0.08114,-0.05397 0.135819,-0.05397 0.05539,0 0.1016,0.01729 0.139347,0.05115 0.03739,0.03457 0.05609,0.07726 0.05609,0.129116 0,0.05151 -0.0187,0.09455 -0.05609,0.128764 -0.03775,0.03422 -0.08396,0.05115 -0.139347,0.05115 -0.05468,0 -0.100189,-0.01764 -0.135819,-0.05362 -0.03598,-0.03598 -0.05398,-0.07796 -0.05398,-0.126295"
		/>
		<path id="pathIntegracion_O" class="letter"
			d="m 59.520529,39.557988 h 0.340078 l -0.352778,0.360186 h -0.23495 z m -0.415219,1.165931 c 0,0.04657 0.0071,0.09313 0.02117,0.140052 0.01411,0.04657 0.03563,0.08819 0.06385,0.124884 0.02858,0.03669 0.06421,0.06667 0.107597,0.09031 0.04339,0.02328 0.09525,0.03493 0.155222,0.03493 0.05997,0 0.111478,-0.01164 0.15487,-0.03493 0.04339,-0.02364 0.07937,-0.05362 0.107597,-0.09031 0.02822,-0.03669 0.04974,-0.07832 0.06385,-0.124884 0.01411,-0.04692 0.02117,-0.09349 0.02117,-0.140052 0,-0.04692 -0.0071,-0.09313 -0.02117,-0.138995 -0.01411,-0.04586 -0.03563,-0.08714 -0.06385,-0.123825 -0.02822,-0.03669 -0.06421,-0.06632 -0.107597,-0.0889 -0.04339,-0.02258 -0.0949,-0.03387 -0.15487,-0.03387 -0.05997,0 -0.11183,0.01129 -0.155222,0.03387 -0.04339,0.02258 -0.07902,0.05221 -0.107597,0.0889 -0.02822,0.03669 -0.04974,0.07796 -0.06385,0.123825 -0.01411,0.04586 -0.02117,0.09208 -0.02117,0.138995 m -0.305153,0 c 0,-0.09525 0.01693,-0.181681 0.0515,-0.259292 0.03387,-0.07726 0.08008,-0.143581 0.138642,-0.198614 0.05821,-0.05503 0.127353,-0.09772 0.207433,-0.127706 0.08043,-0.02999 0.165453,-0.04515 0.255411,-0.04515 0.08996,0 0.174978,0.01517 0.255059,0.04515 0.08008,0.02999 0.149225,0.07267 0.207786,0.127706 0.05821,0.05503 0.104422,0.121356 0.138642,0.198614 0.03422,0.07761 0.05151,0.164042 0.05151,0.259292 0,0.0949 -0.01729,0.181327 -0.05151,0.259997 -0.03422,0.07832 -0.08043,0.145344 -0.138642,0.201436 -0.05856,0.05574 -0.127706,0.09948 -0.207786,0.131233 -0.08008,0.03175 -0.1651,0.04762 -0.255059,0.04762 -0.08996,0 -0.174977,-0.01588 -0.255411,-0.04762 -0.08008,-0.03175 -0.149225,-0.07549 -0.207433,-0.131233 -0.05856,-0.05609 -0.104775,-0.12312 -0.138642,-0.201436 -0.03457,-0.07867 -0.0515,-0.1651 -0.0515,-0.259997"
		/>
		<path id="pathIntegracion_N2" class="letter"
			d="m 60.345993,40.128323 h 0.285397 v 0.192617 h 0.0049 c 0.02646,-0.05997 0.07267,-0.112889 0.138642,-0.15875 0.06597,-0.04586 0.143933,-0.06915 0.233891,-0.06915 0.07867,0 0.145698,0.01411 0.201437,0.04163 0.05574,0.02752 0.1016,0.06385 0.137583,0.108656 0.03563,0.04515 0.06244,0.09666 0.07867,0.155222 0.01693,0.05821 0.02505,0.118533 0.02505,0.179916 v 0.750712 H 61.151385 V 40.66384 c 0,-0.03528 -0.0025,-0.07197 -0.0074,-0.110067 -0.0049,-0.03845 -0.01588,-0.07303 -0.03245,-0.104069 -0.01658,-0.03069 -0.03951,-0.05644 -0.06879,-0.0762 -0.02893,-0.02011 -0.06809,-0.02999 -0.116064,-0.02999 -0.04868,0 -0.09031,0.0095 -0.125236,0.02858 -0.03528,0.0194 -0.06385,0.04375 -0.08643,0.07373 -0.02258,0.03034 -0.03951,0.06456 -0.05115,0.104069 -0.01164,0.03916 -0.01764,0.07867 -0.01764,0.118887 v 0.6604 h -0.300214 z"
		/>
    </g>
    <g id="gEconomica">
		<path id="pathEconomica_E" class="letter"
			d="m 45.66437,42.506293 h 1.173339 v 0.275167 h -0.857956 v 0.450497 h 0.8128 v 0.264936 h -0.8128 v 0.500239 h 0.902759 V 44.27759 H 45.66437 Z"
		/>
		<path id="pathEconomica_C" class="letter"
			d="m 47.94589,43.409439 c -0.02328,-0.03351 -0.05856,-0.06138 -0.105128,-0.08396 -0.04692,-0.02258 -0.09419,-0.03351 -0.142522,-0.03351 -0.05503,0 -0.103364,0.01094 -0.145344,0.03351 -0.04127,0.02258 -0.0762,0.05221 -0.103717,0.0889 -0.02752,0.03669 -0.04763,0.07796 -0.06138,0.123825 -0.01341,0.04586 -0.01976,0.09207 -0.01976,0.138642 0,0.04692 0.0071,0.09313 0.02117,0.138994 0.01411,0.04586 0.03528,0.08714 0.06385,0.123825 0.02822,0.03669 0.0635,0.06632 0.106187,0.0889 0.04233,0.02258 0.09243,0.03387 0.148872,0.03387 0.04657,0 0.09349,-0.0092 0.140053,-0.02787 0.04657,-0.01834 0.08431,-0.0448 0.112536,-0.08008 l 0.187677,0.190147 c -0.04974,0.05362 -0.113947,0.0949 -0.191205,0.124178 -0.07761,0.02893 -0.161572,0.04374 -0.251531,0.04374 -0.08855,0 -0.172155,-0.01411 -0.25153,-0.04269 -0.07902,-0.02822 -0.148167,-0.06985 -0.207434,-0.125236 -0.05927,-0.05468 -0.105833,-0.121708 -0.140052,-0.200025 -0.03422,-0.07832 -0.05115,-0.16757 -0.05115,-0.267758 0,-0.09666 0.01693,-0.18415 0.05115,-0.262467 0.03422,-0.07832 0.08043,-0.144992 0.138641,-0.200025 0.05856,-0.05503 0.126648,-0.09772 0.203906,-0.127706 0.07761,-0.02999 0.160514,-0.04516 0.249061,-0.04516 0.08819,0 0.173919,0.01658 0.256117,0.05009 0.0829,0.03351 0.148166,0.07937 0.196497,0.137584 z"
		/>
		<path id="pathEconomica_O" class="letter"
			d="m 48.531184,43.672117 c 0,0.04657 0.0071,0.09349 0.02117,0.140053 0.01411,0.04657 0.03563,0.08819 0.06385,0.124883 0.02822,0.03669 0.06421,0.06668 0.107598,0.09031 0.04304,0.02328 0.0949,0.03493 0.155222,0.03493 0.05997,0 0.111478,-0.01164 0.154869,-0.03493 0.04339,-0.02364 0.07902,-0.05362 0.107598,-0.09031 0.02858,-0.03669 0.04974,-0.07832 0.06385,-0.124883 0.01411,-0.04657 0.02117,-0.09349 0.02117,-0.140053 0,-0.04657 -0.0071,-0.09313 -0.02117,-0.138994 -0.01411,-0.04586 -0.03528,-0.08714 -0.06385,-0.123825 -0.02857,-0.03669 -0.06421,-0.06632 -0.107598,-0.0889 -0.04339,-0.02258 -0.0949,-0.03351 -0.154869,-0.03351 -0.06032,0 -0.112183,0.01094 -0.155222,0.03351 -0.04339,0.02258 -0.07937,0.05221 -0.107598,0.0889 -0.02822,0.03669 -0.04974,0.07796 -0.06385,0.123825 -0.01411,0.04586 -0.02117,0.09243 -0.02117,0.138994 m -0.305153,0 c 0,-0.09525 0.01693,-0.181681 0.05115,-0.258939 0.03422,-0.07761 0.08043,-0.143933 0.138994,-0.198967 0.05821,-0.05503 0.127353,-0.09772 0.207434,-0.127705 0.08008,-0.02999 0.1651,-0.04516 0.255411,-0.04516 0.08996,0 0.174978,0.01517 0.255058,0.04516 0.08008,0.02999 0.149225,0.07267 0.207434,0.127705 0.05856,0.05503 0.104775,0.121356 0.138994,0.198967 0.03422,0.07726 0.05115,0.163689 0.05115,0.258939 0,0.0949 -0.01693,0.181681 -0.05115,0.259997 -0.03422,0.07832 -0.08043,0.145345 -0.138994,0.201436 -0.05821,0.05609 -0.127353,0.09948 -0.207434,0.131234 -0.08008,0.03175 -0.1651,0.04763 -0.255058,0.04763 -0.09031,0 -0.175331,-0.01588 -0.255411,-0.04763 -0.08008,-0.03175 -0.149225,-0.07514 -0.207434,-0.131234 -0.05856,-0.05609 -0.104775,-0.123119 -0.138994,-0.201436 -0.03422,-0.07832 -0.05115,-0.1651 -0.05115,-0.259997"
		/>
		<path id="pathEconomica_N" class="letter"
			d="m 49.771938,43.076628 h 0.285044 v 0.192617 h 0.0049 c 0.02681,-0.05997 0.07303,-0.112889 0.138995,-0.15875 0.06597,-0.04586 0.143933,-0.06914 0.233891,-0.06914 0.07832,0 0.145698,0.01411 0.201437,0.04163 0.05574,0.02752 0.1016,0.06385 0.137583,0.108656 0.03563,0.04516 0.06209,0.09666 0.07867,0.155222 0.01658,0.05821 0.02505,0.118533 0.02505,0.179916 v 0.750712 H 50.57733 v -0.665339 c 0,-0.03528 -0.0025,-0.07197 -0.0074,-0.110067 -0.0049,-0.03845 -0.01588,-0.07302 -0.03281,-0.104069 -0.01658,-0.03069 -0.03916,-0.05645 -0.06844,-0.0762 -0.02928,-0.02011 -0.06809,-0.02999 -0.116417,-0.02999 -0.04833,0 -0.08996,0.0095 -0.124883,0.02857 -0.03528,0.0194 -0.0642,0.04375 -0.08643,0.07373 -0.02258,0.03034 -0.03951,0.06456 -0.05151,0.104069 -0.01164,0.03916 -0.01729,0.07867 -0.01729,0.118887 v 0.6604 h -0.300214 z"
		/>
		<path id="pathEconomica_O2" class="letter"
			d="m 51.828315,42.506293 h 0.340078 l -0.352778,0.360186 h -0.23495 z m -0.415219,1.165931 c 0,0.04657 0.0071,0.09313 0.02117,0.140052 0.01411,0.04657 0.03528,0.0882 0.06385,0.124884 0.02822,0.03669 0.06421,0.06668 0.107597,0.09031 0.04304,0.02328 0.0949,0.03493 0.155222,0.03493 0.05997,0 0.111478,-0.01164 0.15487,-0.03493 0.04339,-0.02364 0.07902,-0.05362 0.107597,-0.09031 0.02822,-0.03669 0.04939,-0.07832 0.06385,-0.124884 0.01411,-0.04692 0.02117,-0.09349 0.02117,-0.140052 0,-0.04692 -0.0071,-0.09313 -0.02117,-0.138995 -0.01446,-0.04586 -0.03563,-0.08714 -0.06385,-0.123825 -0.02857,-0.03669 -0.06421,-0.06632 -0.107597,-0.0889 -0.04339,-0.02258 -0.0949,-0.03387 -0.15487,-0.03387 -0.06032,0 -0.112183,0.01129 -0.155222,0.03387 -0.04339,0.02258 -0.07937,0.05221 -0.107597,0.0889 -0.02857,0.03669 -0.04974,0.07796 -0.06385,0.123825 -0.01411,0.04586 -0.02117,0.09208 -0.02117,0.138995 m -0.305153,0 c 0,-0.09525 0.01693,-0.181681 0.05115,-0.259292 0.03422,-0.07726 0.08043,-0.143581 0.138994,-0.198614 0.05821,-0.05503 0.127353,-0.09772 0.207433,-0.127706 0.08008,-0.02999 0.1651,-0.04516 0.255411,-0.04516 0.08961,0 0.174978,0.01517 0.255059,0.04516 0.07973,0.02999 0.149225,0.07267 0.207786,0.127706 0.05821,0.05503 0.104422,0.121356 0.138642,0.198614 0.03387,0.07761 0.05115,0.164042 0.05115,0.259292 0,0.0949 -0.01729,0.181327 -0.05115,0.259997 -0.03422,0.07832 -0.08043,0.145344 -0.138642,0.201436 -0.05856,0.05574 -0.128058,0.09948 -0.207786,0.131233 -0.08008,0.03175 -0.165453,0.04762 -0.255059,0.04762 -0.09031,0 -0.17533,-0.01588 -0.255411,-0.04762 -0.08008,-0.03175 -0.149225,-0.07549 -0.207433,-0.131233 -0.05856,-0.05609 -0.104775,-0.12312 -0.138994,-0.201436 -0.03422,-0.07867 -0.05115,-0.1651 -0.05115,-0.259997"
		/>
		<path id="pathEconomica_M" class="letter"
			d="m 54.087116,43.041492 c 0.07832,0 0.145697,0.01411 0.201436,0.04127 0.05574,0.02752 0.1016,0.06385 0.137583,0.109008 0.03563,0.04516 0.06209,0.09666 0.07902,0.155223 0.01623,0.05821 0.02469,0.11818 0.02469,0.179916 v 0.750359 h -0.300214 v -0.665339 c 0,-0.03493 -0.0025,-0.07161 -0.0074,-0.110067 -0.0049,-0.03845 -0.01588,-0.07302 -0.03246,-0.103717 -0.01658,-0.03104 -0.03951,-0.05644 -0.06879,-0.0762 -0.02928,-0.02011 -0.06809,-0.03034 -0.116417,-0.03034 -0.04657,0 -0.08678,0.01023 -0.119944,0.03034 -0.03351,0.01976 -0.06103,0.04551 -0.08255,0.07726 -0.02187,0.03175 -0.03775,0.06738 -0.04763,0.106186 -0.0099,0.03951 -0.01482,0.07832 -0.01482,0.116769 v 0.655109 h -0.300214 v -0.725312 c 0,-0.07514 -0.01799,-0.13723 -0.05398,-0.186619 -0.03563,-0.04904 -0.09208,-0.07373 -0.168981,-0.07373 -0.0448,0 -0.08431,0.0099 -0.117475,0.02893 -0.03351,0.0194 -0.06032,0.04375 -0.08114,0.07373 -0.02081,0.02999 -0.03669,0.06456 -0.04763,0.103716 -0.01094,0.03916 -0.01623,0.07902 -0.01623,0.118887 v 0.6604 H 52.65378 V 43.07677 h 0.285044 v 0.192616 h 0.0049 c 0.01341,-0.02999 0.0314,-0.05856 0.05398,-0.08502 0.02258,-0.02681 0.04904,-0.05115 0.08008,-0.07267 0.03069,-0.02152 0.06632,-0.03881 0.106186,-0.05115 0.04022,-0.0127 0.08431,-0.01905 0.132644,-0.01905 0.09349,0 0.171098,0.02117 0.232834,0.06244 0.06138,0.04198 0.109008,0.09701 0.142522,0.165452 0.03986,-0.07373 0.09349,-0.129822 0.159808,-0.16898 0.06668,-0.03916 0.145345,-0.05891 0.235303,-0.05891"
		/>
		<path id="pathEconomica_I" class="letter"
			d="m 54.835146,43.076628 h 0.300214 v 1.200856 h -0.300214 z m -0.04269,-0.407811 c 0,-0.04833 0.01799,-0.09066 0.05398,-0.126294 0.03563,-0.03598 0.08114,-0.05362 0.136172,-0.05362 0.05503,0 0.1016,0.01693 0.138994,0.05115 0.03775,0.03422 0.05609,0.07726 0.05609,0.128764 0,0.05186 -0.01834,0.09455 -0.05609,0.128764 -0.03739,0.03422 -0.08396,0.05115 -0.138994,0.05115 -0.05503,0 -0.100542,-0.01764 -0.136172,-0.05362 -0.03598,-0.03563 -0.05398,-0.07796 -0.05398,-0.126295"
		/>
		<path id="pathEconomica_C2" class="letter"
			d="m 56.271128,43.409439 c -0.02328,-0.03351 -0.05856,-0.06138 -0.105128,-0.08396 -0.04692,-0.02258 -0.09419,-0.03351 -0.142522,-0.03351 -0.05503,0 -0.103717,0.01094 -0.145344,0.03351 -0.04163,0.02258 -0.0762,0.05221 -0.103717,0.0889 -0.02752,0.03669 -0.04798,0.07796 -0.06138,0.123825 -0.01341,0.04586 -0.01976,0.09207 -0.01976,0.138642 0,0.04692 0.0071,0.09313 0.02117,0.138994 0.01411,0.04586 0.03528,0.08714 0.06385,0.123825 0.02822,0.03669 0.0635,0.06632 0.106187,0.0889 0.04233,0.02258 0.09243,0.03387 0.148872,0.03387 0.04657,0 0.09349,-0.0092 0.140053,-0.02787 0.04657,-0.01834 0.08431,-0.0448 0.112536,-0.08008 l 0.187677,0.190147 c -0.05009,0.05362 -0.113947,0.0949 -0.191205,0.124178 -0.07761,0.02893 -0.161572,0.04374 -0.251531,0.04374 -0.08855,0 -0.172155,-0.01411 -0.25153,-0.04269 -0.07902,-0.02822 -0.148167,-0.06985 -0.207434,-0.125236 -0.05927,-0.05468 -0.106186,-0.121708 -0.140052,-0.200025 -0.03422,-0.07832 -0.05151,-0.16757 -0.05151,-0.267758 0,-0.09666 0.01729,-0.18415 0.05151,-0.262467 0.03387,-0.07832 0.08043,-0.144992 0.138641,-0.200025 0.05856,-0.05503 0.126295,-0.09772 0.203906,-0.127706 0.07761,-0.02999 0.160514,-0.04516 0.249061,-0.04516 0.08819,0 0.173919,0.01658 0.256117,0.05009 0.08255,0.03351 0.148166,0.07937 0.196497,0.137584 z"
		/>
		<path id="pathEconomica_A" class="letter"
			d="m 57.36167,43.729479 h -0.06738 c -0.04868,0 -0.09948,0.0021 -0.152752,0.0064 -0.05327,0.0042 -0.102659,0.01341 -0.147461,0.02752 -0.04516,0.01411 -0.08255,0.03422 -0.112537,0.05997 -0.02999,0.02575 -0.04515,0.06103 -0.04515,0.106186 0,0.02857 0.0063,0.05221 0.0187,0.07161 0.0127,0.01905 0.02893,0.03457 0.04904,0.04586 0.01976,0.01199 0.04233,0.02046 0.06738,0.0254 0.02505,0.0049 0.05009,0.0074 0.07479,0.0074 0.103364,0 0.182033,-0.02752 0.235302,-0.08255 0.05327,-0.05503 0.08008,-0.130175 0.08008,-0.225072 z m 0.0049,0.395464 h -0.0074 c -0.02999,0.05327 -0.07832,0.09701 -0.144992,0.131233 -0.06667,0.03422 -0.142875,0.05115 -0.227895,0.05115 -0.04833,0 -0.09878,-0.006 -0.151341,-0.0187 -0.05256,-0.01235 -0.100895,-0.03351 -0.144992,-0.06244 -0.0441,-0.02928 -0.08079,-0.06773 -0.110067,-0.115005 -0.02928,-0.04762 -0.04374,-0.106539 -0.04374,-0.176389 0,-0.09031 0.0254,-0.161925 0.0762,-0.215195 0.05115,-0.05327 0.116417,-0.09419 0.196497,-0.122414 0.08008,-0.02857 0.168981,-0.04727 0.266347,-0.05644 0.09772,-0.0092 0.19297,-0.01376 0.286456,-0.01376 v -0.02999 c 0,-0.07514 -0.02716,-0.130527 -0.08114,-0.166511 -0.05433,-0.03563 -0.118886,-0.05362 -0.194028,-0.05362 -0.0635,0 -0.124177,0.01305 -0.182386,0.03986 -0.05856,0.02681 -0.106891,0.05927 -0.145344,0.09772 l -0.15487,-0.182738 c 0.06809,-0.06315 0.147109,-0.110773 0.236009,-0.142523 0.08925,-0.03175 0.179916,-0.04763 0.271639,-0.04763 0.106538,0 0.194733,0.01517 0.263877,0.04516 0.06914,0.02999 0.123825,0.06914 0.163689,0.117475 0.04022,0.04833 0.06809,0.102658 0.08396,0.16263 0.01588,0.05997 0.02399,0.120298 0.02399,0.18027 v 0.73025 h -0.280458 z"
		/>
    </g>
  </g>
</svg>
